<svg xmlns="http://www.w3.org/2000/svg" xmlns:xlink="http://www.w3.org/1999/xlink" preserveAspectRatio="xMidYMid" width="77" height="38" viewBox="0 0 77 38">
  <defs>
    <style>

      .cls-2 {
        fill: #ffffff;
      }
    </style>
  </defs>
  <path d="M70.142,13.659 C70.142,13.659 70.142,5.934 70.142,5.934 C70.142,5.934 62.663,5.934 62.663,5.934 C62.663,5.934 62.663,0.010 62.663,0.010 C62.663,0.010 51.330,0.010 51.330,0.010 C51.330,0.010 51.330,13.659 51.330,13.659 C51.330,13.659 26.573,13.659 26.573,13.659 C26.573,13.659 26.573,0.010 26.573,0.010 C26.573,0.010 15.241,0.010 15.241,0.010 C15.241,0.010 15.241,5.934 15.241,5.934 C15.241,5.934 7.761,5.934 7.761,5.934 C7.761,5.934 7.761,13.659 7.761,13.659 C7.761,13.659 0.000,13.659 0.000,13.659 C0.000,13.659 0.000,24.371 0.000,24.371 C0.000,24.371 7.761,24.371 7.761,24.371 C7.761,24.371 7.761,32.096 7.761,32.096 C7.761,32.096 15.241,32.096 15.241,32.096 C15.241,32.096 15.241,38.020 15.241,38.020 C15.241,38.020 26.573,38.020 26.573,38.020 C26.573,38.020 26.573,24.371 26.573,24.371 C26.573,24.371 51.330,24.371 51.330,24.371 C51.330,24.371 51.330,38.020 51.330,38.020 C51.330,38.020 62.663,38.020 62.663,38.020 C62.663,38.020 62.663,32.096 62.663,32.096 C62.663,32.096 70.142,32.096 70.142,32.096 C70.142,32.096 70.142,24.371 70.142,24.371 C70.142,24.371 77.000,24.371 77.000,24.371 C77.000,24.371 77.000,13.659 77.000,13.659 C77.000,13.659 70.142,13.659 70.142,13.659 ZM7.761,21.159 C7.761,21.159 3.227,21.159 3.227,21.159 C3.227,21.159 3.227,16.871 3.227,16.871 C3.227,16.871 7.761,16.871 7.761,16.871 C7.761,16.871 7.761,21.159 7.761,21.159 ZM10.988,28.884 C10.988,28.884 10.988,9.146 10.988,9.146 C10.988,9.146 15.241,9.146 15.241,9.146 C15.241,9.146 15.241,28.884 15.241,28.884 C15.241,28.884 10.988,28.884 10.988,28.884 ZM23.346,34.808 C23.346,34.808 18.469,34.808 18.469,34.808 C18.469,34.808 18.469,3.223 18.469,3.223 C18.469,3.223 23.346,3.223 23.346,3.223 C23.346,3.223 23.346,34.808 23.346,34.808 ZM51.330,21.159 C51.330,21.159 26.573,21.159 26.573,21.159 C26.573,21.159 26.573,16.871 26.573,16.871 C26.573,16.871 51.330,16.871 51.330,16.871 C51.330,16.871 51.330,21.159 51.330,21.159 ZM59.436,34.808 C59.436,34.808 54.557,34.808 54.557,34.808 C54.557,34.808 54.557,3.223 54.557,3.223 C54.557,3.223 59.436,3.223 59.436,3.223 C59.436,3.223 59.436,34.808 59.436,34.808 ZM66.915,28.884 C66.915,28.884 62.663,28.884 62.663,28.884 C62.663,28.884 62.663,9.146 62.663,9.146 C62.663,9.146 66.915,9.146 66.915,9.146 C66.915,9.146 66.915,28.884 66.915,28.884 ZM73.773,21.159 C73.773,21.159 70.142,21.159 70.142,21.159 C70.142,21.159 70.142,16.871 70.142,16.871 C70.142,16.871 73.773,16.871 73.773,16.871 C73.773,16.871 73.773,21.159 73.773,21.159 Z" id="path-1" class="cls-2" fill-rule="evenodd"/>
</svg>
