<svg xmlns="http://www.w3.org/2000/svg" xmlns:xlink="http://www.w3.org/1999/xlink" preserveAspectRatio="xMidYMid" width="79" height="43" viewBox="0 0 79 43">
  <defs>
    <style>

      .cls-2 {
        fill: #ffffff;
      }
    </style>
  </defs>
  <path d="M79.000,18.406 C79.000,18.406 79.000,5.884 79.000,5.884 C79.000,5.884 60.186,5.884 60.186,5.884 C60.186,5.884 60.186,18.406 60.186,18.406 C60.186,22.842 63.648,26.447 67.996,26.731 C67.996,26.731 67.996,39.309 67.996,39.309 C67.996,39.309 61.782,39.309 61.782,39.309 C61.782,39.309 61.782,42.515 61.782,42.515 C61.782,42.515 77.404,42.515 77.404,42.515 C77.404,42.515 77.404,39.309 77.404,39.309 C77.404,39.309 71.189,39.309 71.189,39.309 C71.189,39.309 71.189,26.731 71.189,26.731 C75.538,26.448 79.000,22.842 79.000,18.406 ZM70.654,23.580 C70.654,23.580 68.533,23.580 68.533,23.580 C65.691,23.580 63.378,21.258 63.378,18.406 C63.378,18.406 63.378,9.090 63.378,9.090 C63.378,9.090 75.807,9.090 75.807,9.090 C75.807,9.090 75.807,18.406 75.807,18.406 C75.807,21.258 73.495,23.580 70.654,23.580 ZM42.798,32.078 C38.491,32.078 34.903,35.201 34.147,39.309 C34.147,39.309 32.091,39.309 32.091,39.309 C32.091,39.309 32.091,32.085 32.091,32.085 C32.091,32.085 2.741,32.085 2.741,32.085 C2.741,32.085 2.741,39.309 2.741,39.309 C2.741,39.309 -0.000,39.309 -0.000,39.309 C-0.000,39.309 -0.000,42.515 -0.000,42.515 C-0.000,42.515 54.442,42.515 54.442,42.515 C54.442,42.515 54.442,39.309 54.442,39.309 C54.442,39.309 51.450,39.309 51.450,39.309 C50.694,35.201 47.106,32.078 42.798,32.078 ZM28.898,39.309 C28.898,39.309 5.934,39.309 5.934,39.309 C5.934,39.309 5.934,35.290 5.934,35.290 C5.934,35.290 28.898,35.290 28.898,35.290 C28.898,35.290 28.898,39.309 28.898,39.309 ZM37.420,39.309 C38.112,36.984 40.261,35.284 42.798,35.284 C45.336,35.284 47.486,36.984 48.177,39.309 C48.177,39.309 37.420,39.309 37.420,39.309 ZM42.150,11.942 C43.017,12.692 43.702,13.283 44.031,14.275 C44.400,15.385 44.178,16.786 43.478,17.761 C42.754,18.769 41.566,19.302 40.043,19.302 C40.043,19.302 40.043,22.507 40.043,22.507 C42.599,22.507 44.738,21.488 46.068,19.636 C47.379,17.808 47.760,15.366 47.061,13.261 C46.453,11.431 45.273,10.412 44.233,9.512 C43.437,8.825 42.750,8.231 42.306,7.302 C41.792,6.228 41.912,4.989 42.611,4.146 C43.379,3.221 44.653,2.944 46.195,3.368 C46.195,3.368 47.036,0.275 47.036,0.275 C44.298,-0.477 41.727,0.204 40.159,2.094 C38.661,3.897 38.374,6.486 39.428,8.689 C40.161,10.224 41.217,11.136 42.150,11.942 ZM29.315,11.942 C30.182,12.692 30.868,13.283 31.196,14.275 C31.565,15.385 31.342,16.785 30.642,17.761 C29.919,18.769 28.732,19.302 27.208,19.302 C27.208,19.302 27.208,22.507 27.208,22.507 C29.764,22.507 31.904,21.488 33.233,19.635 C34.545,17.808 34.925,15.366 34.226,13.261 C33.618,11.431 32.438,10.412 31.398,9.512 C30.602,8.825 29.915,8.231 29.471,7.302 C28.957,6.228 29.077,4.989 29.776,4.146 C30.544,3.221 31.815,2.944 33.361,3.368 C33.361,3.368 34.201,0.275 34.201,0.275 C31.462,-0.477 28.892,0.204 27.324,2.094 C25.826,3.897 25.539,6.486 26.593,8.689 C27.326,10.224 28.382,11.136 29.315,11.942 ZM16.480,11.942 C17.348,12.692 18.033,13.283 18.362,14.275 C18.731,15.385 18.507,16.785 17.807,17.761 C17.084,18.769 15.897,19.302 14.374,19.302 C14.374,19.302 14.374,22.507 14.374,22.507 C16.929,22.507 19.069,21.488 20.398,19.635 C21.710,17.808 22.090,15.366 21.391,13.261 C20.783,11.431 19.603,10.412 18.563,9.512 C17.768,8.825 17.080,8.231 16.636,7.302 C16.122,6.228 16.242,4.989 16.941,4.146 C17.709,3.221 18.981,2.944 20.526,3.368 C20.526,3.368 21.366,0.275 21.366,0.275 C18.628,-0.477 16.057,0.204 14.489,2.094 C12.991,3.897 12.705,6.486 13.758,8.689 C14.491,10.224 15.547,11.136 16.480,11.942 Z" id="path-1" class="cls-2" fill-rule="evenodd"/>
</svg>
