<svg xmlns="http://www.w3.org/2000/svg" xmlns:xlink="http://www.w3.org/1999/xlink" version="1.1" id="Layer_2" x="0" y="0" width="120" height="120" viewBox="0 0 120 120" xml:space="preserve" enable-background="new 0 0 120 120">
  <path d="M90.59 30.53l-19.95-7.36c-3.34-1.18-6.8-2.05-10.64-2.05 -3.84 0-7.31 0.87-10.64 2.05l-19.95 7.36C20.47 33.79 17.5 36.79 17.5 44.67v40.4c0 8.96 4.13 13.82 14.3 13.82h56.39C98.37 98.88 102.5 94.03 102.5 85.06V44.67C102.5 36.79 99.53 33.79 90.59 30.53zM101.49 85.06c0 8.67-4.22 12.81-13.29 12.81H31.8C22.73 97.87 18.51 93.73 18.51 85.06v-39.7c0-7.14 1.46-10.37 10.9-13.83l19.95-7.36c3.34-1.18 6.8-2.09 10.64-2.09 3.84 0 7.31 0.9 10.64 2.09l19.95 7.36c9.44 3.45 10.9 6.69 10.9 13.83V85.06z" fill="#E4E4E4"/>
  <path d="M35.61 66.31v1.26c0.9 0 1.4 0.12 1.65 0.38 0.13 0.13 0.21 0.38 0.22 0.66 0 0.26-0.04 0.46-0.16 0.97 -0.44 1.69-2.03 7.84-2.3 8.85 0 0-1.6-6.47-2.22-8.99 -0.13-0.54-0.2-0.91-0.2-1.01 0-0.25 0.06-0.43 0.18-0.55 0.21-0.21 0.73-0.31 1.54-0.31l0-1.26H27.46v1.26c0.86 0 1.1 0.19 1.27 0.91 0 0 0.72 2.87 0.79 3.12l-2 6.86c0 0-1.66-6.85-2.2-9.13 -0.1-0.42-0.13-0.63-0.14-0.76 -0.01-0.31 0.06-0.55 0.21-0.7 0.2-0.2 0.56-0.3 1.22-0.3l0-1.26h-6.52l0 1.26c0.76 0 1.02 0.2 1.2 0.9 0 0 4.23 16.29 4.23 16.29h1.57l3.03-10.82 2.77 10.82h1.62L38.6 70.29c0.53-1.86 0.7-2.71 1.94-2.71l0-1.26H35.61z" fill="#E4E4E4"/>
  <path d="M99.5 83.5c-1.05-0.04-1.56-0.3-1.56-1.32v-7.46c0-1.32-0.35-2.37-1.02-3.04 -0.53-0.53-1.26-0.81-2.1-0.81 -1.23 0-2.33 0.66-3.07 1.97v-1.64l-4.68 0.17v1.15c1.08 0.08 1.56 0.3 1.56 1.33v8.33c0 1.02-0.43 1.25-1.56 1.32v1.22h6.54v-1.22c-1.15-0.07-1.66-0.29-1.66-1.32v-6.57c0-0.91 0.38-1.93 0.91-2.47 0.26-0.26 0.54-0.39 0.82-0.39 0.19 0 0.36 0.07 0.49 0.2 0.22 0.22 0.34 0.61 0.34 1.12v10.64h4.99V83.5zM84.58 70.86c-1.39 0.01-2.45 1.41-2.94 2.91v-2.58l-4.73 0.17v1.15c1.12 0.09 1.66 0.29 1.66 1.33v8.33c0 1.03-0.49 1.24-1.66 1.33v1.21h7v-1.21c-1.44-0.07-2.01-0.55-2.01-1.6v-3.66c0-1.65 0.55-3.98 1.56-5.24 -0.09 0.24-0.15 0.56-0.15 0.77 -0.02 0.74 0.19 1.27 0.55 1.63 0.28 0.28 0.66 0.43 1.11 0.43 0.39 0 0.76-0.16 1.06-0.47 0.45-0.44 0.7-1.15 0.7-1.93 0-0.73-0.2-1.59-0.72-2.06C85.59 71.01 85.14 70.86 84.58 70.86z" fill="#E4E4E4"/>
  <path d="M50.83 62.23c0 1.56-0.49 2.87-1.42 3.8 -1.01 1.01-2.52 1.54-4.36 1.54h-8.09l0-1.26c1.57 0 1.87-0.5 1.87-1.47V51.85c0-0.54-0.1-0.87-0.31-1.09 -0.26-0.26-0.62-0.39-1.55-0.38v-1.26h8.37c1.65 0 2.86 0.35 3.61 1.15 0.89 0.96 1.12 2.14 1.12 3.42 -0.01 1.82-1.07 3.41-3.18 3.97 1.16 0.1 2.06 0.5 2.75 1.23C50.42 59.7 50.83 60.85 50.83 62.23zM46 59.29c-0.47-0.47-1.18-0.66-2.45-0.66h-1.01v6.05c0 0.56 0.13 0.97 0.4 1.24 0.26 0.26 0.66 0.36 1.2 0.39 1.92 0.11 2.76-1.64 2.81-3.54C47.01 60.92 46.76 60.04 46 59.29zM45.54 51.13c-0.36-0.41-1.02-0.75-1.74-0.75 -0.41 0-0.76 0.09-0.95 0.28 -0.21 0.21-0.31 0.53-0.31 1.03v5.52h0.65c2 0 3.15-0.89 3.15-3.31C46.34 52.66 46.15 51.82 45.54 51.13zM50.39 84.42c0.09-0.23 0.14-0.38 0.29-0.38 0.07 0 0.27 0.1 0.48 0.22 0.54 0.31 1.36 0.79 2.57 0.78 2.56 0 4.66-1.63 4.67-4.48 0.01-2.23-1.18-3.57-3.86-4.4 -0.58-0.18-1.02-0.34-1.66-0.68 -0.59-0.32-0.93-0.87-0.93-1.54 0-0.53 0.18-0.99 0.52-1.29 0.29-0.27 0.6-0.43 1.14-0.45 1.29-0.06 2.2 1.03 2.75 2.93h1.09v-3.93h-1.01c0 0-0.05 0.2-0.08 0.29 -0.03 0.11-0.09 0.29-0.17 0.29 -0.11 0-0.17-0.05-0.3-0.12 -0.47-0.28-0.99-0.77-2.48-0.79 -2.22-0.03-4.11 1.52-4.2 4.09 -0.06 1.59 0.64 2.75 1.37 3.29 0.92 0.68 1.63 0.91 2.41 1.21 1.97 0.77 2.49 1.28 2.49 2.36 0 1.14-0.79 1.91-1.87 1.91 -1.36 0-2.7-0.97-3.18-3.66h-1.1v4.66h0.93C50.27 84.72 50.33 84.55 50.39 84.42zM65.65 80.06v1.49c0 1.33-0.46 1.89-1.18 1.89 -0.3 0-0.52-0.08-0.69-0.25 -0.25-0.24-0.36-0.69-0.36-1.35v-9.31h3.27v-1.33h-3.27V66.44H62.47c-0.09 0.77-0.26 4.06-4.04 4.88v1.2h1.66v8.61c0 1.64 0.38 2.46 0.89 3.01 0.61 0.64 1.35 0.91 2.48 0.91 1.18 0 1.93-0.28 2.47-0.82 0.5-0.5 0.83-1.22 0.83-2.25v-1.92H65.65zM48.09 80.05c-0.3 2.22-1.28 4.99-4.62 4.99 -1.12 0-2.77-0.38-4.02-2.12 -0.83-1.15-1.37-2.81-1.37-4.95 0-4.19 2.11-7.12 5.13-7.12 1.18 0 2.17 0.39 2.93 1.15 1.18 1.18 1.8 3.24 1.8 5.97v0.08h-6.29c0.01 2.58 0.38 4.21 1.15 4.98 0.35 0.35 0.77 0.51 1.29 0.52 1.66 0.02 2.42-1.78 2.74-3.5L48.09 80.05zM43.84 72.47c-0.19-0.19-0.42-0.28-0.7-0.28 -0.28 0-0.51 0.09-0.7 0.28 -0.53 0.54-0.78 1.85-0.78 4.26h2.97C44.62 74.33 44.37 73.01 43.84 72.47zM78.8 62.56v1.5c0 1.33-0.46 1.89-1.18 1.89 -0.3 0-0.53-0.08-0.69-0.25 -0.24-0.24-0.36-0.69-0.36-1.35v-9.32h3.27v-1.33h-3.27v-4.75h-0.94c-0.25 0.8-0.26 4.06-4.04 4.88v1.2h1.66v8.61c0 1.65 0.38 2.46 0.89 3.01 0.61 0.64 1.35 0.91 2.48 0.91 1.18 0 1.93-0.28 2.47-0.82 0.5-0.5 0.83-1.22 0.83-2.25v-1.93H78.8zM61.57 62.56c-0.3 2.22-1.28 4.98-4.62 4.99 -1.12 0-2.77-0.38-4.02-2.12 -0.83-1.15-1.37-2.81-1.37-4.95 0-4.19 2.11-7.12 5.13-7.12 1.18 0 2.17 0.39 2.93 1.15 1.18 1.18 1.8 3.24 1.8 5.97v0.08H55.13c0.01 2.58 0.38 4.21 1.15 4.98 0.35 0.35 0.77 0.51 1.29 0.52 1.66 0.02 2.42-1.78 2.74-3.49L61.57 62.56zM57.31 54.98c-0.19-0.19-0.42-0.28-0.7-0.28 -0.28 0-0.51 0.09-0.7 0.28 -0.53 0.54-0.78 1.85-0.78 4.26h2.97C58.09 56.83 57.85 55.51 57.31 54.98zM76.95 80.05c-0.3 2.22-1.28 4.99-4.62 4.99 -1.12 0-2.77-0.38-4.02-2.12 -0.83-1.15-1.37-2.81-1.37-4.95 0-4.19 2.11-7.12 5.13-7.12 1.18 0 2.17 0.39 2.93 1.15 1.18 1.18 1.8 3.24 1.8 5.97v0.08h-6.29c0.01 2.58 0.38 4.21 1.15 4.98 0.35 0.35 0.77 0.51 1.29 0.52 1.66 0.02 2.42-1.78 2.74-3.5L76.95 80.05zM72.7 72.47c-0.19-0.19-0.42-0.28-0.7-0.28 -0.28 0-0.51 0.09-0.7 0.28 -0.53 0.54-0.78 1.85-0.78 4.26h2.96C73.48 74.33 73.24 73.01 72.7 72.47zM63.81 66.54c0.11 0 0.27 0.1 0.48 0.22 0.54 0.31 1.36 0.79 2.57 0.78 2.56 0 4.66-1.63 4.67-4.48 0.01-2.23-1.19-3.57-3.86-4.4 -0.58-0.18-1.02-0.34-1.66-0.68 -0.59-0.32-0.93-0.87-0.93-1.54 0-0.53 0.19-0.98 0.52-1.29 0.23-0.22 0.59-0.43 1.14-0.45 1.29-0.06 2.2 1.03 2.75 2.93h1.1v-3.93h-1.01c0 0-0.05 0.2-0.08 0.29 -0.03 0.11-0.09 0.29-0.17 0.29 -0.11 0-0.17-0.05-0.3-0.12 -0.47-0.28-0.99-0.77-2.48-0.79 -2.22-0.03-4.11 1.52-4.2 4.09 -0.06 1.59 0.64 2.75 1.37 3.29 0.92 0.68 1.63 0.91 2.41 1.21 1.97 0.77 2.49 1.28 2.49 2.36 0 1.14-0.79 1.91-1.87 1.91 -1.36 0-2.7-0.97-3.18-3.66h-1.1v4.66h0.94C63.46 66.92 63.51 66.53 63.81 66.54z" fill="#E4E4E4"/>
  <path d="M52.72 46.48l-5.09-11.48 0.7-1.16 1.46 0.67 5.31 11.99L52.72 46.48zM54.91 34.61l0.7-1.16 1.46 0.67 2.23 5.03 -1.19 2.67L54.91 34.61zM64.93 46.48l5.31-11.99 1.46-0.66 0.69 1.17 -5.09 11.49L64.93 46.48zM58.08 33.15l-2.95-1.27L53.45 34.56l3.93 8.86 -1.1 2.48 -5.49-12.36 -2.95-1.27 -1.68 2.67 5.69 12.83h5.05l1.21-2.73 1.21 2.73h1.39l1.21-2.73 1.21 2.73h5.04l5.69-12.83 -1.68-2.67 -2.95 1.27 -5.49 12.36 -1.1-2.48 3.93-8.86 -1.68-2.67 -2.95 1.27 -1.92 4.34L58.08 33.15zM61.91 41.8l-1.19-2.67 2.23-5.03 1.46-0.66 0.7 1.17L61.91 41.8zM60.01 40.76l1.18 2.67 -1.18 2.67 -1.18-2.66L60.01 40.76zM60.98 25.56l1.65 3.7 -1.65 3.73h-1.93l-1.66-3.74 1.64-3.69H60.98zM60.01 26.58l-1.19 2.67 1.19 2.67 1.19-2.67L60.01 26.58z" fill="#E4E4E4"/>
</svg>
