<svg xmlns="http://www.w3.org/2000/svg" xmlns:xlink="http://www.w3.org/1999/xlink" preserveAspectRatio="xMidYMid" width="22" height="22" viewBox="0 0 22 22">
  <defs>
    <style>

      .cls-2 {
        fill: #031054;
      }
    </style>
  </defs>
  <path d="M11.000,9.059 C11.000,9.059 1.941,-0.000 1.941,-0.000 C1.941,-0.000 -0.000,1.941 -0.000,1.941 C-0.000,1.941 9.059,11.000 9.059,11.000 C9.059,11.000 -0.000,20.059 -0.000,20.059 C-0.000,20.059 1.941,22.000 1.941,22.000 C1.941,22.000 11.000,12.941 11.000,12.941 C11.000,12.941 20.059,22.000 20.059,22.000 C20.059,22.000 22.000,20.059 22.000,20.059 C22.000,20.059 12.941,11.000 12.941,11.000 C12.941,11.000 22.000,1.941 22.000,1.941 C22.000,1.941 20.059,-0.000 20.059,-0.000 C20.059,-0.000 11.000,9.059 11.000,9.059 Z" id="path-1" class="cls-2" fill-rule="evenodd"/>
</svg>
