<svg xmlns="http://www.w3.org/2000/svg" xmlns:xlink="http://www.w3.org/1999/xlink" preserveAspectRatio="xMidYMid" width="32" height="32" viewBox="0 0 32 32">
  <defs>
    <style>

      .cls-2 {
        fill: #ffd200;
      }
    </style>
  </defs>
  <path d="M16.000,32.000 C7.177,32.000 0.000,24.822 0.000,16.000 C0.000,7.177 7.177,0.000 16.000,0.000 C24.823,0.000 32.000,7.177 32.000,16.000 C32.000,24.822 24.823,32.000 16.000,32.000 ZM16.000,3.178 C8.930,3.178 3.178,8.930 3.178,16.000 C3.178,23.070 8.930,28.822 16.000,28.822 C23.070,28.822 28.822,23.070 28.822,16.000 C28.822,8.930 23.070,3.178 16.000,3.178 ZM17.589,23.607 C17.589,23.607 14.411,23.607 14.411,23.607 C14.411,23.607 14.411,17.589 14.411,17.589 C14.411,17.589 8.393,17.589 8.393,17.589 C8.393,17.589 8.393,14.411 8.393,14.411 C8.393,14.411 14.411,14.411 14.411,14.411 C14.411,14.411 14.411,8.393 14.411,8.393 C14.411,8.393 17.589,8.393 17.589,8.393 C17.589,8.393 17.589,14.411 17.589,14.411 C17.589,14.411 23.606,14.411 23.606,14.411 C23.606,14.411 23.606,17.589 23.606,17.589 C23.606,17.589 17.589,17.589 17.589,17.589 C17.589,17.589 17.589,23.607 17.589,23.607 Z" id="path-1" class="cls-2" fill-rule="evenodd"/>
</svg>
