<svg xmlns="http://www.w3.org/2000/svg" xmlns:xlink="http://www.w3.org/1999/xlink" preserveAspectRatio="xMidYMid" width="41" height="37" viewBox="0 0 41 37">
  <defs>
    <style>

      .cls-2 {
        fill: #031054;
      }
    </style>
  </defs>
  <path d="M19.940,37.137 C19.940,37.137 18.889,36.103 18.889,36.103 C17.187,34.427 15.377,32.785 13.626,31.197 C10.319,28.197 6.897,25.095 3.954,21.545 C1.435,18.510 0.106,15.117 0.004,11.461 C-0.118,7.187 3.067,2.510 7.251,0.815 C11.409,-0.874 16.415,0.318 19.617,3.746 C19.779,3.921 19.938,4.098 20.093,4.280 C20.413,3.915 20.750,3.553 21.121,3.210 C23.344,1.149 26.112,0.014 28.914,0.014 C33.368,0.014 37.341,2.770 39.284,7.207 C40.871,10.833 40.468,14.654 38.054,18.888 C36.186,22.170 33.493,24.705 30.890,27.156 C28.666,29.250 26.472,31.271 24.280,33.290 C24.280,33.290 21.494,35.859 21.494,35.859 C21.408,35.938 21.323,36.007 21.213,36.095 C21.213,36.095 19.940,37.137 19.940,37.137 ZM11.288,3.251 C10.327,3.251 9.384,3.435 8.486,3.799 C5.522,5.000 3.180,8.397 3.264,11.372 C3.347,14.337 4.396,16.996 6.475,19.500 C9.271,22.873 12.605,25.897 15.830,28.821 C17.233,30.094 18.676,31.401 20.081,32.745 C20.081,32.745 22.057,30.931 22.057,30.931 C24.241,28.919 26.426,26.907 28.588,24.872 C31.183,22.428 33.584,20.167 35.214,17.305 C37.120,13.963 37.461,11.161 36.290,8.489 C34.874,5.250 32.047,3.238 28.914,3.238 C26.915,3.238 24.992,4.042 23.350,5.562 C22.887,5.992 22.454,6.504 21.995,7.047 C21.764,7.321 21.532,7.596 21.290,7.868 C21.290,7.868 20.026,9.293 20.026,9.293 C20.026,9.293 18.286,7.191 18.286,7.191 C17.940,6.763 17.596,6.335 17.222,5.934 C15.606,4.204 13.498,3.251 11.288,3.251 Z" id="path-1" class="cls-2" fill-rule="evenodd"/>
</svg>
