<svg xmlns="http://www.w3.org/2000/svg" xmlns:xlink="http://www.w3.org/1999/xlink" preserveAspectRatio="xMidYMid" width="32" height="32" viewBox="0 0 32 32">
  <defs>
    <style>

      .cls-2 {
        fill: #ffd200;
      }
    </style>
  </defs>
  <path d="M8.392,17.589 C8.392,17.589 23.607,17.589 23.607,17.589 C23.607,17.589 23.607,14.411 23.607,14.411 C23.607,14.411 8.392,14.411 8.392,14.411 C8.392,14.411 8.392,17.589 8.392,17.589 ZM16.000,0.000 C7.177,0.000 -0.000,7.177 -0.000,16.000 C-0.000,24.822 7.177,32.000 16.000,32.000 C24.823,32.000 32.000,24.822 32.000,16.000 C32.000,7.177 24.823,0.000 16.000,0.000 ZM16.000,28.822 C8.930,28.822 3.178,23.070 3.178,16.000 C3.178,8.930 8.930,3.178 16.000,3.178 C23.070,3.178 28.822,8.930 28.822,16.000 C28.822,23.070 23.070,28.822 16.000,28.822 Z" id="path-1" class="cls-2" fill-rule="evenodd"/>
</svg>
