<svg xmlns="http://www.w3.org/2000/svg" xmlns:xlink="http://www.w3.org/1999/xlink" preserveAspectRatio="xMidYMid" width="41" height="37" viewBox="0 0 41 37">
  <defs>
    <style>

      .cls-2 {
        fill: #df9e02;
      }
    </style>
  </defs>
  <path d="M39.268,7.202 C37.327,2.765 33.353,0.008 28.899,0.008 C26.096,0.008 23.328,1.143 21.104,3.205 C20.734,3.548 20.397,3.910 20.077,4.274 C19.922,4.093 19.765,3.915 19.602,3.741 C16.401,0.314 11.396,-0.878 7.234,0.809 C3.050,2.505 -0.133,7.182 -0.013,11.457 C0.089,15.112 1.418,18.504 3.937,21.542 C6.881,25.091 10.301,28.194 13.608,31.193 C15.360,32.782 17.171,34.424 18.874,36.101 C18.874,36.101 19.920,37.133 19.920,37.133 C19.920,37.133 21.189,36.101 21.189,36.101 C21.306,36.007 21.395,35.934 21.478,35.857 C21.478,35.857 24.258,33.294 24.258,33.294 C26.453,31.272 28.648,29.249 30.866,27.162 C33.472,24.707 36.167,22.170 38.040,18.884 C40.453,14.650 40.855,10.830 39.268,7.202 Z" id="path-1" class="cls-2" fill-rule="evenodd"/>
</svg>
