<svg xmlns="http://www.w3.org/2000/svg" xmlns:xlink="http://www.w3.org/1999/xlink" preserveAspectRatio="xMidYMid" width="54" height="54" viewBox="0 0 54 54">
  <defs>
    <style>

      .cls-2 {
        fill: #FFFFFF;
      }
    </style>
  </defs>
  <path d="M31.893,19.455 C31.893,19.455 29.652,21.697 29.652,21.697 C29.652,21.697 32.015,24.060 32.015,24.060 C32.015,24.060 20.076,24.060 20.076,24.060 C20.076,24.060 20.076,34.084 20.076,34.084 C20.076,34.084 23.246,34.084 23.246,34.084 C23.246,34.084 23.246,27.230 23.246,27.230 C23.246,27.230 32.014,27.230 32.014,27.230 C32.014,27.230 29.652,29.592 29.652,29.592 C29.652,29.592 31.893,31.834 31.893,31.834 C31.893,31.834 38.083,25.645 38.083,25.645 C38.083,25.645 31.893,19.455 31.893,19.455 ZM27.000,-0.000 C27.000,-0.000 0.000,27.000 0.000,27.000 C0.000,27.000 27.000,54.000 27.000,54.000 C27.000,54.000 54.000,27.000 54.000,27.000 C54.000,27.000 27.000,-0.000 27.000,-0.000 ZM4.483,27.000 C4.483,27.000 27.000,4.483 27.000,4.483 C27.000,4.483 49.517,27.000 49.517,27.000 C49.517,27.000 27.000,49.517 27.000,49.517 C27.000,49.517 4.483,27.000 4.483,27.000 Z" id="path-1" class="cls-2" fill-rule="evenodd"/>
</svg>
