<svg xmlns="http://www.w3.org/2000/svg" xmlns:xlink="http://www.w3.org/1999/xlink" preserveAspectRatio="xMidYMid" width="50" height="50" viewBox="0 0 50 50">
  <defs>
    <style>

      .cls-2 {
        fill: #FFFFFF;
      }
    </style>
  </defs>
  <path d="M24.999,0.000 C11.215,0.000 -0.000,11.215 -0.000,25.000 C-0.000,38.785 11.215,50.000 24.999,50.000 C38.784,50.000 50.000,38.785 50.000,25.000 C50.000,11.215 38.784,0.000 24.999,0.000 ZM24.999,46.776 C12.992,46.776 3.223,37.008 3.223,25.000 C3.223,12.993 12.992,3.224 24.999,3.224 C37.007,3.224 46.777,12.993 46.777,25.000 C46.777,37.008 37.007,46.776 24.999,46.776 ZM27.574,31.694 C26.956,29.892 24.876,28.869 23.068,29.490 C23.068,29.490 22.531,29.674 22.531,29.674 C22.531,29.674 20.125,22.651 20.125,22.651 C20.125,22.651 20.658,22.468 20.658,22.468 C22.509,21.834 23.498,19.812 22.865,17.961 C22.865,17.961 21.958,15.309 21.958,15.309 C21.658,14.375 20.954,12.188 18.593,12.188 C18.156,12.188 17.691,12.273 17.213,12.440 C17.213,12.440 16.997,12.533 16.997,12.533 C16.734,12.670 14.394,13.902 13.201,14.974 C12.036,16.022 10.316,18.534 11.263,21.300 C11.263,21.300 16.366,36.180 16.366,36.180 C17.513,39.520 19.577,39.745 21.398,39.943 C21.398,39.943 21.713,39.978 21.713,39.978 C21.930,40.002 22.179,40.015 22.445,40.015 C23.994,40.015 26.195,39.598 26.288,39.580 C26.288,39.580 26.510,39.521 26.510,39.521 C28.040,38.996 29.609,37.628 28.401,34.098 C28.401,34.098 27.574,31.694 27.574,31.694 ZM25.552,36.439 C24.810,36.572 22.981,36.883 22.078,36.775 C22.078,36.775 21.746,36.738 21.746,36.738 C20.144,36.564 19.898,36.537 19.416,35.134 C19.416,35.134 14.314,20.255 14.314,20.255 C13.896,19.041 14.954,17.733 15.357,17.371 C16.069,16.731 17.677,15.822 18.373,15.452 C18.467,15.423 18.522,15.409 18.518,15.387 C18.648,15.550 18.810,16.050 18.889,16.297 C18.889,16.297 19.814,19.007 19.814,19.007 C19.871,19.173 19.780,19.362 19.613,19.419 C19.613,19.419 16.029,20.649 16.029,20.649 C16.029,20.649 20.529,33.769 20.529,33.769 C20.529,33.769 24.214,32.522 24.214,32.522 C24.329,32.522 24.475,32.591 24.525,32.741 C24.525,32.741 25.350,35.144 25.350,35.144 C25.448,35.428 25.706,36.182 25.654,36.380 C25.654,36.381 25.627,36.405 25.552,36.439 ZM39.933,20.263 C38.426,15.967 35.152,12.795 31.215,11.250 C31.215,11.250 29.819,14.154 29.819,14.154 C33.013,15.333 35.679,17.873 36.891,21.329 C38.103,24.786 37.607,28.434 35.849,31.350 C35.849,31.350 38.753,32.746 38.753,32.746 C40.863,29.081 41.439,24.558 39.933,20.263 ZM28.428,17.049 C28.428,17.049 27.024,19.968 27.024,19.968 C28.749,20.393 30.236,21.644 30.866,23.442 C31.497,25.240 31.117,27.146 30.034,28.555 C30.034,28.555 32.954,29.958 32.954,29.958 C34.372,27.782 34.833,25.011 33.908,22.375 C32.984,19.739 30.894,17.863 28.428,17.049 Z" id="path-1" class="cls-2" fill-rule="evenodd"/>
</svg>
