<svg xmlns="http://www.w3.org/2000/svg" xmlns:xlink="http://www.w3.org/1999/xlink" preserveAspectRatio="xMidYMid" width="31" height="30" viewBox="0 0 31 30">
  <defs>
    <style>

      .cls-2 {
        fill: #000000;
        opacity: 0.5;
      }
    </style>
  </defs>
  <path d="M5.942,29.421 C5.942,29.421 7.773,18.777 7.773,18.777 C7.773,18.777 0.015,11.241 0.015,11.241 C0.015,11.241 10.737,9.688 10.737,9.688 C10.737,9.688 15.532,0.005 15.532,0.005 C15.532,0.005 20.329,9.688 20.329,9.688 C20.329,9.688 31.052,11.241 31.052,11.241 C31.052,11.241 23.291,18.777 23.291,18.777 C23.291,18.777 25.124,29.421 25.124,29.421 C25.124,29.421 15.532,24.396 15.532,24.396 C15.532,24.396 5.942,29.421 5.942,29.421 ZM15.532,20.762 C15.532,20.762 20.838,23.542 20.838,23.542 C20.838,23.542 19.824,17.655 19.824,17.655 C19.824,17.655 24.115,13.486 24.115,13.486 C24.115,13.486 18.186,12.627 18.186,12.627 C18.186,12.627 15.532,7.271 15.532,7.271 C15.532,7.271 12.880,12.627 12.880,12.627 C12.880,12.627 6.949,13.486 6.949,13.486 C6.949,13.486 11.239,17.655 11.239,17.655 C11.239,17.655 10.228,23.542 10.228,23.542 C10.228,23.542 15.532,20.762 15.532,20.762 Z" id="path-1" class="cls-2" fill-rule="evenodd"/>
</svg>
