<svg xmlns:svg="http://www.w3.org/2000/svg" xmlns="http://www.w3.org/2000/svg" preserveAspectRatio="xMidYMid" width="64" height="83" viewBox="0 0 64 83" id="svg2" version="1.1">
  <defs id="defs4">
    <style id="style6">


      .cls-2 {
        fill: #df9e02;
      }

    </style>
    <style id="style3431">


      .cls-3 {
        fill: #000000;
        opacity: 0.5;
      }

    </style>
  </defs>
  <path d="M63.996 32.001C63.996 58.14 32 82.813 32 82.813 32 82.813 0.004 58.14 0.004 32.001 0.004 14.327 14.329 0 32 0 49.671 0 63.996 14.327 63.996 32.001Z" id="path-1" fill-rule="evenodd" style="fill-opacity:1;fill:#df9e02;opacity:1"/>
  <g id="layer4" style="display:inline;opacity:1">
    <path id="path-2" d="m20.837896 48.401794c0 0 2.183104-12.263738 2.183104-12.263738 0 0-9.249875-8.682782-9.249875-8.682782 0 0 12.783856-1.789326 12.783856-1.789326 0 0 5.717086-11.156499 5.717086-11.156499 0 0 5.71947 11.156499 5.71947 11.156499 0 0 12.785049 1.789326 12.785049 1.789326 0 0-9.253452 8.682782-9.253452 8.682782 0 0 2.185489 12.263738 2.185489 12.263738 0 0-11.436556-5.789673-11.436556-5.789673 0 0-11.434171 5.789673-11.434171 5.789673zm11.434171-9.976673c0 0 6.326351 3.203044 6.326351 3.203044 0 0-1.208993-6.782848-1.208993-6.782848 0 0 5.116165-4.803413 5.116165-4.803413 0 0-7.069155-0.989717-7.069155-0.989717 0 0-3.164368-6.171043-3.164368-6.171043 0 0-3.161984 6.171043-3.161984 6.171043 0 0-7.07154 0.989717-7.07154 0.989717 0 0 5.114974 4.803413 5.114974 4.803413 0 0-1.205417 6.782848-1.205417 6.782848 0 0 6.323967-3.203044 6.323967-3.203044z" style="fill-rule:evenodd;fill:#000;opacity:0.5"/>
  </g>
</svg>
