<svg xmlns="http://www.w3.org/2000/svg" xmlns:xlink="http://www.w3.org/1999/xlink" preserveAspectRatio="xMidYMid" width="62" height="60" viewBox="0 0 62 60">
  <defs>
    <style>

      .cls-2 {
        fill: #031054;
      }
    </style>
  </defs>
  <path d="M24.712,6.392 C24.712,6.392 21.210,6.392 21.210,6.392 C21.210,6.392 21.210,11.375 21.210,11.375 C21.210,11.375 24.712,11.375 24.712,11.375 C24.712,11.375 24.712,6.392 24.712,6.392 ZM10.038,6.392 C10.038,6.392 6.536,6.392 6.536,6.392 C6.536,6.392 6.536,11.375 6.536,11.375 C6.536,11.375 10.038,11.375 10.038,11.375 C10.038,11.375 10.038,6.392 10.038,6.392 ZM24.712,14.365 C24.712,14.365 21.210,14.365 21.210,14.365 C21.210,14.365 21.210,19.348 21.210,19.348 C21.210,19.348 24.712,19.348 24.712,19.348 C24.712,19.348 24.712,14.365 24.712,14.365 ZM17.375,14.365 C17.375,14.365 13.873,14.365 13.873,14.365 C13.873,14.365 13.873,19.348 13.873,19.348 C13.873,19.348 17.375,19.348 17.375,19.348 C17.375,19.348 17.375,14.365 17.375,14.365 ZM32.050,6.392 C32.050,6.392 28.548,6.392 28.548,6.392 C28.548,6.392 28.548,11.375 28.548,11.375 C28.548,11.375 32.050,11.375 32.050,11.375 C32.050,11.375 32.050,6.392 32.050,6.392 ZM17.375,6.392 C17.375,6.392 13.873,6.392 13.873,6.392 C13.873,6.392 13.873,11.375 13.873,11.375 C13.873,11.375 17.375,11.375 17.375,11.375 C17.375,11.375 17.375,6.392 17.375,6.392 ZM10.038,14.365 C10.038,14.365 6.536,14.365 6.536,14.365 C6.536,14.365 6.536,19.348 6.536,19.348 C6.536,19.348 10.038,19.348 10.038,19.348 C10.038,19.348 10.038,14.365 10.038,14.365 ZM32.050,14.365 C32.050,14.365 28.548,14.365 28.548,14.365 C28.548,14.365 28.548,19.348 28.548,19.348 C28.548,19.348 32.050,19.348 32.050,19.348 C32.050,19.348 32.050,14.365 32.050,14.365 ZM10.038,22.338 C10.038,22.338 6.536,22.338 6.536,22.338 C6.536,22.338 6.536,27.321 6.536,27.321 C6.536,27.321 10.038,27.321 10.038,27.321 C10.038,27.321 10.038,22.338 10.038,22.338 ZM17.375,22.338 C17.375,22.338 13.873,22.338 13.873,22.338 C13.873,22.338 13.873,27.321 13.873,27.321 C13.873,27.321 17.375,27.321 17.375,27.321 C17.375,27.321 17.375,22.338 17.375,22.338 ZM17.375,30.311 C17.375,30.311 13.873,30.311 13.873,30.311 C13.873,30.311 13.873,35.294 13.873,35.294 C13.873,35.294 17.375,35.294 17.375,35.294 C17.375,35.294 17.375,30.311 17.375,30.311 ZM10.038,30.311 C10.038,30.311 6.536,30.311 6.536,30.311 C6.536,30.311 6.536,35.294 6.536,35.294 C6.536,35.294 10.038,35.294 10.038,35.294 C10.038,35.294 10.038,30.311 10.038,30.311 ZM32.050,22.338 C32.050,22.338 28.548,22.338 28.548,22.338 C28.548,22.338 28.548,27.321 28.548,27.321 C28.548,27.321 32.050,27.321 32.050,27.321 C32.050,27.321 32.050,22.338 32.050,22.338 ZM24.712,22.338 C24.712,22.338 21.210,22.338 21.210,22.338 C21.210,22.338 21.210,27.321 21.210,27.321 C21.210,27.321 24.712,27.321 24.712,27.321 C24.712,27.321 24.712,22.338 24.712,22.338 ZM32.050,30.311 C32.050,30.311 28.548,30.311 28.548,30.311 C28.548,30.311 28.548,35.294 28.548,35.294 C28.548,35.294 32.050,35.294 32.050,35.294 C32.050,35.294 32.050,30.311 32.050,30.311 ZM24.712,30.311 C24.712,30.311 21.210,30.311 21.210,30.311 C21.210,30.311 21.210,35.294 21.210,35.294 C21.210,35.294 24.712,35.294 24.712,35.294 C24.712,35.294 24.712,30.311 24.712,30.311 ZM24.712,38.284 C24.712,38.284 21.210,38.284 21.210,38.284 C21.210,38.284 21.210,43.267 21.210,43.267 C21.210,43.267 24.712,43.267 24.712,43.267 C24.712,43.267 24.712,38.284 24.712,38.284 ZM10.038,38.284 C10.038,38.284 6.536,38.284 6.536,38.284 C6.536,38.284 6.536,43.267 6.536,43.267 C6.536,43.267 10.038,43.267 10.038,43.267 C10.038,43.267 10.038,38.284 10.038,38.284 ZM32.050,38.284 C32.050,38.284 28.548,38.284 28.548,38.284 C28.548,38.284 28.548,43.267 28.548,43.267 C28.548,43.267 32.050,43.267 32.050,43.267 C32.050,43.267 32.050,38.284 32.050,38.284 ZM17.375,38.284 C17.375,38.284 13.873,38.284 13.873,38.284 C13.873,38.284 13.873,43.267 13.873,43.267 C13.873,43.267 17.375,43.267 17.375,43.267 C17.375,43.267 17.375,38.284 17.375,38.284 ZM46.725,38.284 C46.725,38.284 43.223,38.284 43.223,38.284 C43.223,38.284 43.223,43.267 43.223,43.267 C43.223,43.267 46.725,43.267 46.725,43.267 C46.725,43.267 46.725,38.284 46.725,38.284 ZM54.062,38.284 C54.062,38.284 50.560,38.284 50.560,38.284 C50.560,38.284 50.560,43.267 50.560,43.267 C50.560,43.267 54.062,43.267 54.062,43.267 C54.062,43.267 54.062,38.284 54.062,38.284 ZM46.725,30.311 C46.725,30.311 43.223,30.311 43.223,30.311 C43.223,30.311 43.223,35.294 43.223,35.294 C43.223,35.294 46.725,35.294 46.725,35.294 C46.725,35.294 46.725,30.311 46.725,30.311 ZM54.062,30.311 C54.062,30.311 50.560,30.311 50.560,30.311 C50.560,30.311 50.560,35.294 50.560,35.294 C50.560,35.294 54.062,35.294 54.062,35.294 C54.062,35.294 54.062,30.311 54.062,30.311 ZM38.584,22.774 C38.584,22.774 38.584,-0.015 38.584,-0.015 C38.584,-0.015 -0.000,-0.015 -0.000,-0.015 C-0.000,-0.015 -0.000,59.993 -0.000,59.993 C-0.000,59.993 62.000,59.993 62.000,59.993 C62.000,59.993 62.000,22.774 62.000,22.774 C62.000,22.774 38.584,22.774 38.584,22.774 ZM17.692,56.804 C17.692,56.804 13.629,56.804 13.629,56.804 C13.629,56.804 13.629,49.844 13.629,49.844 C13.629,49.844 17.692,49.844 17.692,49.844 C17.692,49.844 17.692,56.804 17.692,56.804 ZM24.937,56.804 C24.937,56.804 20.893,56.804 20.893,56.804 C20.893,56.804 20.893,49.844 20.893,49.844 C20.893,49.844 24.937,49.844 24.937,49.844 C24.937,49.844 24.937,56.804 24.937,56.804 ZM35.383,56.804 C35.383,56.804 28.137,56.804 28.137,56.804 C28.137,56.804 28.137,46.656 28.137,46.656 C28.137,46.656 10.428,46.656 10.428,46.656 C10.428,46.656 10.428,56.804 10.428,56.804 C10.428,56.804 3.201,56.804 3.201,56.804 C3.201,56.804 3.201,3.173 3.201,3.173 C3.201,3.173 35.383,3.173 35.383,3.173 C35.383,3.173 35.383,56.804 35.383,56.804 ZM50.534,56.804 C50.534,56.804 46.857,56.804 46.857,56.804 C46.857,56.804 46.857,49.844 46.857,49.844 C46.857,49.844 50.534,49.844 50.534,49.844 C50.534,49.844 50.534,56.804 50.534,56.804 ZM58.799,56.804 C58.799,56.804 53.735,56.804 53.735,56.804 C53.735,56.804 53.735,46.656 53.735,46.656 C53.735,46.656 43.656,46.656 43.656,46.656 C43.656,46.656 43.656,56.804 43.656,56.804 C43.656,56.804 38.584,56.804 38.584,56.804 C38.584,56.804 38.584,25.962 38.584,25.962 C38.584,25.962 58.799,25.962 58.799,25.962 C58.799,25.962 58.799,56.804 58.799,56.804 Z" id="path-1" class="cls-2" fill-rule="evenodd"/>
</svg>
