<svg xmlns="http://www.w3.org/2000/svg" xmlns:xlink="http://www.w3.org/1999/xlink" preserveAspectRatio="xMidYMid" width="70" height="56" viewBox="0 0 70 56">
  <defs>
    <style>

      .cls-2 {
        fill: #031054;
      }
    </style>
  </defs>
  <path d="M69.392,37.599 C69.392,37.599 69.398,37.596 69.398,37.596 C69.393,37.582 69.381,37.548 69.372,37.523 C69.285,37.238 69.177,36.963 69.072,36.685 C67.602,32.584 61.706,16.142 60.320,12.539 C57.102,4.162 55.490,0.010 49.032,0.004 C43.952,0.042 40.054,3.846 39.626,9.062 C38.328,8.133 36.749,7.570 35.030,7.570 C33.328,7.570 31.760,8.121 30.469,9.035 C30.025,3.899 26.131,0.113 21.063,0.075 C21.063,0.075 20.956,0.075 20.956,0.075 C14.594,0.075 12.976,4.279 9.775,12.607 C9.775,12.607 9.717,12.756 9.717,12.756 C8.468,16.009 2.982,31.075 1.181,36.031 C0.424,37.769 0.000,39.681 0.000,41.692 C0.000,49.593 6.480,56.020 14.444,56.020 C22.381,56.020 28.840,49.636 28.884,41.772 C28.884,41.772 28.887,41.772 28.887,41.772 C28.887,41.772 28.971,40.132 28.971,40.132 C30.418,41.874 32.582,43.009 35.030,43.009 C37.443,43.009 39.580,41.906 41.027,40.207 C41.027,40.207 41.115,42.032 41.115,42.032 C41.115,42.032 41.130,42.031 41.130,42.031 C41.315,49.774 47.707,56.020 55.556,56.020 C63.520,56.020 70.000,49.593 70.000,41.692 C70.000,40.269 69.783,38.897 69.392,37.599 ZM49.057,3.170 C53.095,3.188 54.066,5.150 57.393,13.812 C58.218,15.958 60.885,23.336 63.103,29.499 C60.903,28.154 58.324,27.364 55.556,27.364 C50.763,27.364 46.519,29.702 43.891,33.278 C43.891,33.278 42.773,9.950 42.773,9.950 C42.773,6.048 45.416,3.198 49.057,3.170 ZM12.756,13.736 C16.007,5.282 16.944,3.242 20.949,3.242 C20.949,3.242 21.038,3.242 21.038,3.242 C24.679,3.269 27.322,6.120 27.323,9.941 C27.323,9.941 26.125,33.298 26.125,33.298 C23.497,29.710 19.246,27.364 14.444,27.364 C11.706,27.364 9.153,28.138 6.969,29.456 C9.214,23.302 11.904,15.955 12.756,13.736 ZM14.444,52.854 C8.240,52.854 3.192,47.846 3.192,41.692 C3.192,40.613 3.355,39.572 3.644,38.585 C3.716,38.387 3.887,37.917 4.138,37.226 C5.879,33.290 9.841,30.530 14.444,30.530 C20.648,30.530 25.697,35.537 25.697,41.692 C25.697,47.846 20.648,52.854 14.444,52.854 ZM35.030,39.843 C32.442,39.843 30.336,37.754 30.336,35.187 C30.336,32.619 32.442,30.530 35.030,30.530 C37.619,30.530 39.725,32.619 39.725,35.187 C39.725,37.754 37.619,39.843 35.030,39.843 ZM35.030,27.364 C32.881,27.364 30.934,28.226 29.510,29.615 C29.510,29.615 30.239,15.392 30.239,15.392 C30.239,15.392 30.336,15.392 30.336,15.392 C30.336,12.825 32.442,10.736 35.030,10.736 C37.619,10.736 39.725,12.825 39.725,15.392 C39.725,15.392 39.840,15.392 39.840,15.392 C39.840,15.392 40.519,29.588 40.519,29.588 C39.098,28.217 37.165,27.364 35.030,27.364 ZM55.556,52.854 C49.351,52.854 44.305,47.846 44.305,41.692 C44.305,35.537 49.351,30.530 55.556,30.530 C60.236,30.530 64.255,33.381 65.949,37.422 C66.130,37.930 66.261,38.294 66.330,38.487 C66.638,39.503 66.808,40.578 66.808,41.692 C66.808,47.846 61.760,52.854 55.556,52.854 Z" id="path-1" class="cls-2" fill-rule="evenodd"/>
</svg>
