<svg xmlns="http://www.w3.org/2000/svg" xmlns:xlink="http://www.w3.org/1999/xlink" preserveAspectRatio="xMidYMid" width="53" height="67" viewBox="0 0 53 67">
  <defs>
    <style>

      .cls-2 {
        fill: #031054;
      }
    </style>
  </defs>
  <path d="M41.395,13.418 C40.590,5.882 34.218,-0.007 26.499,-0.007 C18.780,-0.007 12.408,5.882 11.604,13.418 C11.604,13.418 0.000,13.418 0.000,13.418 C0.000,13.418 0.000,66.986 0.000,66.986 C0.000,66.986 53.000,66.986 53.000,66.986 C53.000,66.986 53.000,13.418 53.000,13.418 C53.000,13.418 41.395,13.418 41.395,13.418 ZM26.499,3.217 C32.443,3.217 37.360,7.667 38.148,13.418 C38.148,13.418 14.850,13.418 14.850,13.418 C15.638,7.667 20.555,3.217 26.499,3.217 ZM49.787,63.762 C49.787,63.762 3.213,63.762 3.213,63.762 C3.213,63.762 3.213,16.642 3.213,16.642 C3.213,16.642 49.787,16.642 49.787,16.642 C49.787,16.642 49.787,63.762 49.787,63.762 ZM26.499,51.521 C32.480,51.521 37.426,47.043 38.215,41.255 C38.215,41.255 41.191,41.255 41.191,41.255 C41.191,41.255 41.191,38.031 41.191,38.031 C41.191,38.031 38.215,38.031 38.215,38.031 C37.426,32.242 32.480,27.764 26.499,27.764 C20.519,27.764 15.572,32.242 14.784,38.031 C14.784,38.031 12.012,38.031 12.012,38.031 C12.012,38.031 12.012,41.255 12.012,41.255 C12.012,41.255 14.784,41.255 14.784,41.255 C15.572,47.043 20.519,51.521 26.499,51.521 ZM26.499,30.988 C30.705,30.988 34.205,34.028 34.961,38.031 C34.961,38.031 18.037,38.031 18.037,38.031 C18.794,34.028 22.294,30.988 26.499,30.988 ZM34.961,41.255 C34.205,45.257 30.705,48.297 26.499,48.297 C22.294,48.297 18.794,45.257 18.037,41.255 C18.037,41.255 34.961,41.255 34.961,41.255 Z" id="path-1" class="cls-2" fill-rule="evenodd"/>
</svg>
