<svg xmlns="http://www.w3.org/2000/svg" xmlns:xlink="http://www.w3.org/1999/xlink" preserveAspectRatio="xMidYMid" width="44" height="44" viewBox="0 0 44 44">
  <defs>
    <style>

      .cls-2 {
        fill: #ffffff;
      }
    </style>
  </defs>
  <path d="M37.166,40.353 C37.166,40.353 37.166,43.976 37.166,43.976 C37.166,43.976 7.166,43.976 7.166,43.976 C7.166,43.976 7.166,40.353 7.166,40.353 C7.166,40.353 0.000,40.353 0.000,40.353 C0.000,40.353 0.000,16.261 0.000,16.261 C0.000,16.261 7.166,16.261 7.166,16.261 C7.166,16.261 7.166,-0.009 7.166,-0.009 C7.166,-0.009 37.166,-0.009 37.166,-0.009 C37.166,-0.009 37.166,16.261 37.166,16.261 C37.166,16.261 44.000,16.261 44.000,16.261 C44.000,16.261 44.000,40.353 44.000,40.353 C44.000,40.353 37.166,40.353 37.166,40.353 ZM11.166,39.961 C11.166,39.961 33.166,39.961 33.166,39.961 C33.166,39.961 33.166,32.113 33.166,32.113 C33.166,32.113 11.166,32.113 11.166,32.113 C11.166,32.113 11.166,39.961 11.166,39.961 ZM33.166,4.007 C33.166,4.007 11.166,4.007 11.166,4.007 C11.166,4.007 11.166,16.261 11.166,16.261 C11.166,16.261 33.166,16.261 33.166,16.261 C33.166,16.261 33.166,4.007 33.166,4.007 ZM40.000,20.276 C40.000,20.276 4.000,20.276 4.000,20.276 C4.000,20.276 4.000,36.337 4.000,36.337 C4.000,36.337 7.166,36.337 7.166,36.337 C7.166,36.337 7.166,28.098 7.166,28.098 C7.166,28.098 37.166,28.098 37.166,28.098 C37.166,28.098 37.166,36.337 37.166,36.337 C37.166,36.337 40.000,36.337 40.000,36.337 C40.000,36.337 40.000,20.276 40.000,20.276 Z" id="path-1" class="cls-2" fill-rule="evenodd"/>
</svg>
