<svg xmlns="http://www.w3.org/2000/svg" xmlns:xlink="http://www.w3.org/1999/xlink" preserveAspectRatio="xMidYMid" width="131" height="147" viewBox="0 0 131 147">
  <defs>
    <style>

      .cls-2 {
        fill: #031054;
      }
    </style>
  </defs>
  <path d="M123.393,78.908 C120.610,77.381 115.144,75.664 107.532,79.099 C107.532,79.099 107.532,64.223 107.532,64.223 C107.532,51.581 68.471,51.581 53.765,51.581 C39.061,51.581 -0.000,51.581 -0.000,64.223 C-0.000,64.223 -0.000,124.321 -0.000,124.321 C-0.000,127.936 2.587,146.028 53.696,147.153 C53.696,147.153 53.862,147.153 53.862,147.153 C53.862,147.153 53.888,147.152 53.888,147.152 C104.945,146.028 107.532,127.936 107.532,124.321 C107.532,124.321 107.532,113.938 107.532,113.938 C114.140,113.905 119.776,111.891 123.947,108.029 C129.153,103.208 131.000,96.561 131.000,92.334 C131.000,86.627 128.085,81.482 123.393,78.908 ZM102.765,124.321 C102.765,125.014 102.208,141.308 53.748,142.375 C5.325,141.308 4.767,125.014 4.767,124.321 C4.767,124.321 4.767,70.731 4.767,70.731 C15.633,76.862 42.212,76.866 53.765,76.866 C65.319,76.866 91.899,76.862 102.765,70.731 C102.765,70.731 102.765,124.321 102.765,124.321 ZM53.765,72.087 C15.008,72.087 4.767,66.943 4.767,64.223 C4.767,61.503 15.008,56.360 53.765,56.360 C92.524,56.360 102.765,61.503 102.765,64.223 C102.765,66.943 92.524,72.087 53.765,72.087 ZM120.711,104.517 C117.391,107.591 112.961,109.143 107.532,109.162 C107.532,109.162 107.532,84.465 107.532,84.465 C112.655,81.596 117.434,81.085 121.104,83.100 C124.268,84.836 126.233,88.374 126.233,92.334 C126.233,95.854 124.525,100.986 120.711,104.517 ZM80.549,22.289 C82.357,23.850 83.787,25.082 84.507,27.248 C85.325,29.709 84.853,32.691 83.303,34.848 C81.716,37.053 79.147,38.219 75.869,38.219 C75.869,38.219 75.869,42.998 75.869,42.998 C80.674,42.998 84.687,41.096 87.170,37.642 C89.623,34.228 90.337,29.666 89.029,25.736 C87.895,22.320 85.644,20.379 83.658,18.667 C82.084,17.309 80.598,16.027 79.648,14.042 C78.498,11.641 78.776,8.862 80.356,6.962 C82.056,4.914 84.938,4.258 88.261,5.168 C88.261,5.168 89.515,0.558 89.515,0.558 C84.398,-0.842 79.601,0.407 76.693,3.902 C73.923,7.236 73.395,12.027 75.349,16.109 C76.732,18.997 78.760,20.746 80.549,22.289 ZM55.123,22.289 C56.931,23.850 58.361,25.082 59.081,27.248 C59.898,29.709 59.427,32.691 57.876,34.848 C56.290,37.053 53.720,38.219 50.443,38.219 C50.443,38.219 50.443,42.998 50.443,42.998 C55.248,42.998 59.261,41.096 61.744,37.642 C64.197,34.228 64.911,29.666 63.603,25.736 C62.468,22.320 60.218,20.379 58.232,18.667 C56.658,17.309 55.171,16.027 54.221,14.042 C53.072,11.641 53.349,8.862 54.929,6.962 C56.632,4.914 59.512,4.258 62.835,5.168 C62.835,5.168 64.088,0.558 64.088,0.558 C58.972,-0.842 54.175,0.407 51.267,3.902 C48.497,7.236 47.969,12.027 49.923,16.109 C51.306,18.997 53.334,20.746 55.123,22.289 ZM29.697,22.289 C31.505,23.850 32.934,25.082 33.654,27.248 C34.472,29.709 34.001,32.691 32.450,34.848 C30.864,37.053 28.294,38.219 25.016,38.219 C25.016,38.219 25.016,42.998 25.016,42.998 C29.821,42.998 33.834,41.096 36.318,37.642 C38.771,34.228 39.485,29.666 38.177,25.736 C37.042,22.320 34.792,20.379 32.805,18.667 C31.232,17.309 29.745,16.027 28.795,14.042 C27.645,11.641 27.923,8.862 29.503,6.962 C31.205,4.914 34.087,4.258 37.408,5.168 C37.408,5.168 38.662,0.558 38.662,0.558 C33.546,-0.842 28.749,0.407 25.841,3.902 C23.070,7.236 22.543,12.027 24.497,16.109 C25.879,18.997 27.908,20.746 29.697,22.289 Z" id="path-1" class="cls-2" fill-rule="evenodd"/>
</svg>
