<svg xmlns="http://www.w3.org/2000/svg" xmlns:xlink="http://www.w3.org/1999/xlink" preserveAspectRatio="xMidYMid" width="75" height="75" viewBox="0 0 75 75">
  <defs>
    <style>

      .cls-2 {
        fill: #ffffff;
      }
    </style>
  </defs>
  <path d="M37.501,0.000 C16.824,0.000 -0.000,16.823 -0.000,37.500 C-0.000,58.177 16.824,75.000 37.501,75.000 C58.178,75.000 75.000,58.177 75.000,37.500 C75.000,16.823 58.178,0.000 37.501,0.000 ZM3.301,37.500 C3.301,18.642 18.643,3.301 37.501,3.301 C45.848,3.301 53.499,6.316 59.442,11.302 C59.442,11.302 41.236,32.030 41.236,32.030 C41.236,32.030 11.801,32.030 11.801,32.030 C11.801,32.030 11.801,43.790 11.801,43.790 C11.801,43.790 30.907,43.790 30.907,43.790 C30.907,43.790 14.370,62.617 14.370,62.617 C7.584,56.363 3.301,47.433 3.301,37.500 ZM42.424,35.330 C42.424,35.330 51.963,35.330 51.963,35.330 C51.963,35.330 51.963,40.489 51.963,40.489 C51.963,40.489 37.893,40.489 37.893,40.489 C37.893,40.489 42.424,35.330 42.424,35.330 ZM33.806,40.489 C33.806,40.489 15.102,40.489 15.102,40.489 C15.102,40.489 15.102,35.330 15.102,35.330 C15.102,35.330 38.337,35.330 38.337,35.330 C38.337,35.330 33.806,40.489 33.806,40.489 ZM37.501,71.699 C29.680,71.699 22.486,69.031 16.718,64.597 C16.718,64.597 34.994,43.790 34.994,43.790 C34.994,43.790 62.677,43.790 62.677,43.790 C62.677,43.790 62.677,32.030 62.677,32.030 C62.677,32.030 45.323,32.030 45.323,32.030 C45.323,32.030 61.711,13.372 61.711,13.372 C67.879,19.562 71.699,28.092 71.699,37.500 C71.699,56.357 56.358,71.699 37.501,71.699 ZM55.264,40.489 C55.264,40.489 55.264,35.330 55.264,35.330 C55.264,35.330 59.376,35.330 59.376,35.330 C59.376,35.330 59.376,40.489 59.376,40.489 C59.376,40.489 55.264,40.489 55.264,40.489 Z" id="path-1" class="cls-2" fill-rule="evenodd"/>
</svg>
