<svg xmlns="http://www.w3.org/2000/svg" xmlns:xlink="http://www.w3.org/1999/xlink" preserveAspectRatio="xMidYMid" width="146" height="136" viewBox="0 0 146 136">
  <defs>
    <style>

      .cls-2 {
        fill: #031054;
      }
    </style>
  </defs>
  <path d="M115.198,16.838 C115.198,16.838 53.309,16.838 53.309,16.838 C53.309,16.838 53.309,21.641 53.309,21.641 C53.309,21.641 115.198,21.641 115.198,21.641 C115.198,21.641 115.198,16.838 115.198,16.838 ZM118.483,83.063 C113.429,83.063 109.318,87.181 109.318,92.241 C109.318,95.168 110.699,97.773 112.836,99.454 C114.184,100.515 115.831,101.208 117.632,101.375 C117.913,101.401 118.196,101.418 118.483,101.418 C121.065,101.418 123.397,100.339 125.065,98.613 C126.661,96.960 127.649,94.715 127.649,92.241 C127.649,92.138 127.637,92.038 127.634,91.935 C127.471,87.017 123.434,83.063 118.483,83.063 ZM121.181,95.656 C120.435,96.247 119.506,96.615 118.483,96.615 C118.192,96.615 117.908,96.584 117.632,96.530 C115.803,96.166 114.402,94.653 114.169,92.778 C114.147,92.600 114.115,92.425 114.115,92.241 C114.115,89.829 116.074,87.866 118.483,87.866 C120.405,87.866 122.023,89.123 122.606,90.853 C122.754,91.292 122.853,91.753 122.853,92.241 C122.853,93.629 122.191,94.854 121.181,95.656 ZM46.541,83.063 C45.217,83.063 43.961,83.352 42.823,83.860 C40.643,84.834 38.913,86.634 38.027,88.864 C37.612,89.911 37.376,91.048 37.376,92.241 C37.376,93.434 37.612,94.571 38.027,95.618 C38.027,95.618 38.027,96.315 38.027,96.315 C38.027,96.128 38.064,95.951 38.083,95.769 C38.985,97.930 40.691,99.669 42.823,100.622 C43.961,101.130 45.217,101.418 46.541,101.418 C47.865,101.418 49.120,101.130 50.258,100.622 C52.390,99.670 54.096,97.931 54.999,95.772 C55.454,94.684 55.707,93.492 55.707,92.241 C55.707,87.181 51.595,83.063 46.541,83.063 ZM49.239,95.656 C48.493,96.247 47.563,96.615 46.541,96.615 C45.518,96.615 44.589,96.247 43.843,95.656 C43.439,95.335 43.093,94.951 42.823,94.509 C42.823,94.509 42.823,89.974 42.823,89.974 C43.591,88.715 44.963,87.866 46.541,87.866 C48.503,87.866 50.149,89.177 50.699,90.964 C50.824,91.371 50.911,91.794 50.911,92.241 C50.911,93.629 50.249,94.854 49.239,95.656 ZM143.124,41.204 C143.124,18.485 124.666,0.001 101.978,0.001 C101.978,0.001 64.367,0.001 64.367,0.001 C45.049,0.001 28.806,13.405 24.406,31.334 C24.406,31.334 -0.000,31.334 -0.000,31.334 C-0.000,31.334 -0.000,101.418 -0.000,101.418 C-0.000,101.418 20.757,101.418 20.757,101.418 C22.463,111.617 29.436,116.663 38.027,119.152 C38.027,119.152 38.027,130.535 38.027,130.535 C38.027,133.547 40.475,135.998 43.484,135.998 C43.484,135.998 49.599,135.998 49.599,135.998 C52.608,135.998 55.054,133.547 55.054,130.535 C55.054,130.535 55.054,121.472 55.054,121.472 C58.297,121.587 61.456,121.590 64.367,121.590 C64.367,121.590 101.978,121.590 101.978,121.590 C105.349,121.590 109.054,121.588 112.836,121.407 C112.836,121.407 112.836,130.535 112.836,130.535 C112.836,133.547 115.282,135.998 118.291,135.998 C118.291,135.998 124.406,135.998 124.406,135.998 C127.415,135.998 129.861,133.547 129.861,130.535 C129.861,130.535 129.861,118.654 129.861,118.654 C139.021,115.571 146.000,109.246 145.998,96.239 C145.998,96.239 143.124,41.204 143.124,41.204 ZM23.223,41.079 C23.223,41.079 20.343,96.364 20.343,96.364 C20.343,96.450 20.351,96.530 20.351,96.615 C20.351,96.615 4.796,96.615 4.796,96.615 C4.796,96.615 4.796,36.137 4.796,36.137 C4.796,36.137 23.533,36.137 23.533,36.137 C23.336,37.759 23.223,39.406 23.223,41.079 ZM50.258,130.535 C50.258,130.893 49.957,131.195 49.599,131.195 C49.599,131.195 43.484,131.195 43.484,131.195 C43.126,131.195 42.823,130.893 42.823,130.535 C42.823,130.535 42.823,120.275 42.823,120.275 C45.257,120.719 47.759,121.013 50.258,121.207 C50.258,121.207 50.258,130.535 50.258,130.535 ZM125.065,130.535 C125.065,130.893 124.764,131.195 124.406,131.195 C124.406,131.195 118.291,131.195 118.291,131.195 C117.934,131.195 117.632,130.893 117.632,130.535 C117.632,130.535 117.632,121.069 117.632,121.069 C120.146,120.828 122.647,120.475 125.065,119.959 C125.065,119.959 125.065,130.535 125.065,130.535 ZM129.861,113.502 C128.394,114.068 126.807,114.557 125.065,114.955 C122.817,115.468 120.329,115.847 117.632,116.126 C116.106,116.284 114.504,116.408 112.836,116.504 C109.485,116.696 105.886,116.787 101.978,116.787 C101.978,116.787 64.367,116.787 64.367,116.787 C61.061,116.787 57.962,116.728 55.054,116.595 C53.383,116.519 51.796,116.407 50.258,116.275 C47.570,116.043 45.094,115.714 42.823,115.274 C41.113,114.943 39.497,114.559 38.027,114.087 C31.150,111.875 26.966,107.977 25.632,101.418 C25.333,99.948 25.151,98.368 25.143,96.615 C25.143,96.571 25.136,96.533 25.136,96.489 C25.136,96.489 28.017,41.204 28.017,41.204 C28.017,39.484 28.145,37.794 28.377,36.137 C28.606,34.498 28.946,32.896 29.386,31.334 C33.694,16.045 47.740,4.803 64.367,4.803 C64.367,4.803 101.978,4.803 101.978,4.803 C122.021,4.803 138.328,21.133 138.331,41.330 C138.331,41.330 141.206,96.364 141.206,96.364 C141.206,105.466 137.293,110.633 129.861,113.502 ZM131.324,55.716 C131.120,54.721 126.142,31.334 112.319,31.334 C112.319,31.334 54.025,31.334 54.025,31.334 C49.914,31.334 46.163,33.633 42.823,38.167 C41.625,39.794 40.478,41.701 39.389,43.903 C38.891,44.910 38.439,45.913 38.027,46.886 C36.075,51.503 35.090,55.425 35.041,55.623 C35.041,55.623 34.978,56.012 34.978,56.012 C34.682,59.766 35.785,63.506 38.027,66.494 C38.337,66.906 38.665,67.305 39.017,67.686 C40.128,68.888 41.417,69.891 42.823,70.676 C45.096,71.944 47.677,72.637 50.321,72.637 C50.321,72.637 116.024,72.637 116.024,72.637 C120.303,72.637 124.422,70.832 127.328,67.686 C130.231,64.539 131.704,60.284 131.367,56.012 C131.367,56.012 131.324,55.716 131.324,55.716 ZM123.804,64.426 C121.776,66.624 119.012,67.834 116.024,67.834 C116.024,67.834 50.321,67.834 50.321,67.834 C47.465,67.834 44.823,66.718 42.823,64.703 C42.730,64.609 42.631,64.524 42.541,64.426 C40.555,62.275 39.567,59.496 39.746,56.582 C40.262,54.558 41.325,51.270 42.823,47.918 C45.414,42.124 49.318,36.137 54.025,36.137 C54.025,36.137 112.319,36.137 112.319,36.137 C120.491,36.137 125.359,50.715 126.597,56.537 C126.789,59.467 125.801,62.264 123.804,64.426 Z" id="path-1" class="cls-2" fill-rule="evenodd"/>
</svg>
