<svg xmlns="http://www.w3.org/2000/svg" xmlns:xlink="http://www.w3.org/1999/xlink" preserveAspectRatio="xMidYMid" width="157" height="83" viewBox="0 0 157 83">
  <defs>
    <style>

      .cls-2 {
        fill: #031054;
      }
    </style>
  </defs>
  <path d="M157.000,35.920 C157.000,35.920 157.000,11.772 157.000,11.772 C157.000,11.772 121.014,11.772 121.014,11.772 C121.014,11.772 121.014,35.920 121.014,35.920 C121.014,44.594 127.989,51.655 136.616,51.804 C136.616,51.804 136.616,78.365 136.616,78.365 C136.616,78.365 123.406,78.365 123.406,78.365 C123.406,78.365 123.406,83.155 123.406,83.155 C123.406,83.155 154.608,83.155 154.608,83.155 C154.608,83.155 154.608,78.365 154.608,78.365 C154.608,78.365 141.399,78.365 141.399,78.365 C141.399,78.365 141.399,51.804 141.399,51.804 C150.025,51.655 157.000,44.594 157.000,35.920 ZM141.126,47.027 C141.126,47.027 136.889,47.027 136.889,47.027 C130.773,47.027 125.798,42.045 125.798,35.920 C125.798,35.920 125.798,16.562 125.798,16.562 C125.798,16.562 152.217,16.562 152.217,16.562 C152.217,16.562 152.217,35.920 152.217,35.920 C152.217,42.045 147.241,47.027 141.126,47.027 ZM85.487,63.958 C77.047,63.958 70.061,70.233 68.889,78.365 C68.889,78.365 63.303,78.365 63.303,78.365 C63.303,78.365 63.303,63.971 63.303,63.971 C63.303,63.971 6.271,63.971 6.271,63.971 C6.271,63.971 6.271,78.365 6.271,78.365 C6.271,78.365 0.000,78.365 0.000,78.365 C0.000,78.365 0.000,83.155 0.000,83.155 C0.000,83.155 108.745,83.155 108.745,83.155 C108.745,83.155 108.745,78.365 108.745,78.365 C108.745,78.365 102.085,78.365 102.085,78.365 C100.912,70.233 93.927,63.958 85.487,63.958 ZM58.519,78.365 C58.519,78.365 11.054,78.365 11.054,78.365 C11.054,78.365 11.054,68.761 11.054,68.761 C11.054,68.761 58.519,68.761 58.519,68.761 C58.519,68.761 58.519,78.365 58.519,78.365 ZM73.722,78.365 C74.838,72.884 79.689,68.748 85.487,68.748 C91.285,68.748 96.135,72.884 97.252,78.365 C97.252,78.365 73.722,78.365 73.722,78.365 ZM84.712,22.438 C86.538,24.012 87.980,25.255 88.707,27.438 C89.533,29.920 89.055,32.930 87.490,35.104 C85.889,37.329 83.293,38.505 79.984,38.505 C79.984,38.505 79.984,43.295 79.984,43.295 C84.825,43.295 88.869,41.381 91.370,37.905 C93.843,34.469 94.561,29.879 93.244,25.924 C92.100,22.486 89.833,20.532 87.832,18.808 C86.244,17.439 84.744,16.147 83.785,14.146 C82.623,11.723 82.905,8.919 84.500,7.001 C86.222,4.934 89.132,4.276 92.482,5.191 C92.482,5.191 93.742,0.569 93.742,0.569 C88.578,-0.843 83.752,0.419 80.827,3.934 C78.035,7.288 77.503,12.110 79.472,16.218 C80.865,19.123 82.908,20.885 84.712,22.438 ZM59.075,22.438 C60.901,24.012 62.343,25.255 63.070,27.438 C63.896,29.920 63.418,32.930 61.853,35.104 C60.252,37.329 57.656,38.505 54.347,38.505 C54.347,38.505 54.347,43.295 54.347,43.295 C59.188,43.295 63.232,41.381 65.733,37.905 C68.206,34.469 68.924,29.879 67.607,25.924 C66.464,22.486 64.196,20.532 62.195,18.808 C60.607,17.439 59.107,16.147 58.148,14.146 C56.987,11.723 57.268,8.919 58.864,7.001 C60.584,4.934 63.495,4.276 66.845,5.191 C66.845,5.191 68.105,0.569 68.105,0.569 C62.941,-0.843 58.116,0.419 55.190,3.934 C52.398,7.288 51.866,12.110 53.835,16.218 C55.228,19.123 57.271,20.885 59.075,22.438 ZM33.438,22.438 C35.264,24.012 36.706,25.255 37.433,27.438 C38.259,29.920 37.781,32.930 36.216,35.104 C34.615,37.329 32.019,38.505 28.711,38.505 C28.711,38.505 28.711,43.295 28.711,43.295 C33.551,43.295 37.595,41.381 40.096,37.905 C42.569,34.469 43.287,29.879 41.970,25.924 C40.827,22.486 38.559,20.532 36.558,18.808 C34.970,17.439 33.470,16.147 32.511,14.146 C31.350,11.723 31.631,8.919 33.227,7.001 C34.947,4.934 37.859,4.276 41.208,5.191 C41.208,5.191 42.468,0.569 42.468,0.569 C37.303,-0.843 32.479,0.419 29.553,3.934 C26.761,7.288 26.229,12.110 28.198,16.218 C29.591,19.123 31.635,20.885 33.438,22.438 Z" id="path-1" class="cls-2" fill-rule="evenodd"/>
</svg>
