<svg xmlns="http://www.w3.org/2000/svg" xmlns:xlink="http://www.w3.org/1999/xlink" preserveAspectRatio="xMidYMid" width="74" height="69" viewBox="0 0 74 69">
  <defs>
    <style>

      .cls-2 {
        fill: #ffffff;
      }
    </style>
  </defs>
  <path d="M58.155,8.443 C58.155,8.443 27.127,8.443 27.127,8.443 C27.127,8.443 27.127,11.654 27.127,11.654 C27.127,11.654 58.155,11.654 58.155,11.654 C58.155,11.654 58.155,8.443 58.155,8.443 ZM59.803,41.650 C57.048,41.650 54.808,43.895 54.808,46.654 C54.808,49.413 57.048,51.657 59.803,51.657 C62.559,51.657 64.799,49.413 64.799,46.654 C64.799,43.895 62.559,41.650 59.803,41.650 ZM59.803,48.446 C58.817,48.446 58.014,47.642 58.014,46.654 C58.014,45.665 58.817,44.861 59.803,44.861 C60.790,44.861 61.593,45.665 61.593,46.654 C61.593,47.642 60.790,48.446 59.803,48.446 ZM23.734,41.650 C20.979,41.650 18.739,43.895 18.739,46.654 C18.739,49.413 20.979,51.657 23.734,51.657 C26.490,51.657 28.730,49.413 28.730,46.654 C28.730,43.895 26.490,41.650 23.734,41.650 ZM23.734,48.446 C22.748,48.446 21.945,47.642 21.945,46.654 C21.945,45.665 22.748,44.861 23.734,44.861 C24.721,44.861 25.524,45.665 25.524,46.654 C25.524,47.642 24.721,48.446 23.734,48.446 ZM72.557,21.062 C72.557,9.448 63.124,-0.000 51.527,-0.000 C51.527,-0.000 32.672,-0.000 32.672,-0.000 C22.905,-0.000 14.698,6.710 12.343,15.711 C12.343,15.711 0.000,15.711 0.000,15.711 C0.000,15.711 0.000,51.657 0.000,51.657 C0.000,51.657 10.495,51.657 10.495,51.657 C11.448,56.637 14.853,59.170 19.064,60.446 C19.064,60.446 19.064,64.320 19.064,64.320 C19.064,66.899 21.159,68.997 23.734,68.997 C26.308,68.997 28.403,66.899 28.403,64.320 C28.403,64.320 28.403,61.722 28.403,61.722 C29.886,61.766 31.333,61.772 32.672,61.772 C32.672,61.772 51.527,61.772 51.527,61.772 C53.098,61.772 54.815,61.768 56.571,61.697 C56.571,61.697 56.571,64.320 56.571,64.320 C56.571,66.899 58.665,68.997 61.239,68.997 C63.814,68.997 65.909,66.899 65.909,64.320 C65.909,64.320 65.909,60.196 65.909,60.196 C70.511,58.579 74.000,55.304 73.999,48.637 C73.999,48.637 72.557,21.062 72.557,21.062 ZM11.643,20.978 C11.643,20.978 10.213,48.446 10.213,48.446 C10.213,48.446 3.206,48.446 3.206,48.446 C3.206,48.446 3.206,18.922 3.206,18.922 C3.206,18.922 11.747,18.922 11.747,18.922 C11.680,19.599 11.643,20.284 11.643,20.978 ZM25.196,64.320 C25.196,65.129 24.541,65.786 23.734,65.786 C22.927,65.786 22.271,65.129 22.271,64.320 C22.271,64.320 22.271,61.183 22.271,61.183 C23.236,61.342 24.214,61.465 25.196,61.548 C25.196,61.548 25.196,64.320 25.196,64.320 ZM62.703,64.320 C62.703,65.129 62.047,65.786 61.239,65.786 C60.433,65.786 59.777,65.129 59.777,64.320 C59.777,64.320 59.777,61.467 59.777,61.467 C60.763,61.365 61.743,61.234 62.703,61.049 C62.703,61.049 62.703,64.320 62.703,64.320 ZM51.527,58.561 C51.527,58.561 32.672,58.561 32.672,58.561 C20.176,58.561 13.405,56.993 13.404,48.805 C13.404,48.805 14.847,21.062 14.847,21.062 C14.847,11.219 22.844,3.211 32.672,3.211 C32.672,3.211 51.527,3.211 51.527,3.211 C61.355,3.211 69.351,11.219 69.353,21.146 C69.353,21.146 70.795,48.721 70.795,48.721 C70.795,56.993 64.022,58.561 51.527,58.561 ZM56.713,15.711 C56.713,15.711 27.485,15.711 27.485,15.711 C20.863,15.711 17.895,26.918 17.579,28.196 C17.579,28.196 17.537,28.456 17.537,28.456 C17.360,30.709 18.136,32.953 19.667,34.613 C21.200,36.273 23.373,37.225 25.629,37.225 C25.629,37.225 58.570,37.225 58.570,37.225 C60.825,37.225 62.998,36.273 64.531,34.613 C66.062,32.953 66.838,30.709 66.662,28.456 C66.662,28.456 66.634,28.258 66.634,28.258 C66.369,26.974 63.842,15.711 56.713,15.711 ZM62.177,32.434 C61.236,33.453 59.955,34.014 58.570,34.014 C58.570,34.014 25.629,34.014 25.629,34.014 C24.243,34.014 22.963,33.453 22.022,32.434 C21.111,31.446 20.652,30.172 20.724,28.835 C21.577,25.510 24.276,18.922 27.485,18.922 C27.485,18.922 56.713,18.922 56.713,18.922 C60.506,18.922 62.894,26.129 63.471,28.805 C63.553,30.154 63.094,31.439 62.177,32.434 Z" id="path-1" class="cls-2" fill-rule="evenodd"/>
</svg>
