<svg xmlns="http://www.w3.org/2000/svg" xmlns:xlink="http://www.w3.org/1999/xlink" preserveAspectRatio="xMidYMid" width="75" height="75" viewBox="0 0 75 75">
  <defs>
    <style>

      .cls-2 {
        fill: #ffffff;
      }
    </style>
  </defs>
  <path d="M37.501,0.000 C16.823,0.000 0.000,16.823 0.000,37.500 C0.000,58.177 16.823,75.000 37.501,75.000 C58.178,75.000 75.000,58.177 75.000,37.500 C75.000,16.823 58.178,0.000 37.501,0.000 ZM37.501,71.699 C18.643,71.699 3.301,56.358 3.301,37.500 C3.301,18.642 18.643,3.301 37.501,3.301 C56.358,3.301 71.699,18.642 71.699,37.500 C71.699,56.358 56.358,71.699 37.501,71.699 ZM42.241,20.208 C42.241,20.208 26.320,20.208 26.320,20.208 C26.320,20.208 26.320,59.833 26.320,59.833 C26.320,59.833 31.250,59.833 31.250,59.833 C31.250,59.833 31.250,44.091 31.250,44.091 C31.250,44.091 42.241,44.091 42.241,44.091 C50.143,44.091 54.658,38.624 54.658,32.149 C54.658,25.674 50.203,20.208 42.241,20.208 ZM41.648,39.694 C41.648,39.694 31.250,39.694 31.250,39.694 C31.250,39.694 31.250,24.604 31.250,24.604 C31.250,24.604 41.648,24.604 41.648,24.604 C46.341,24.604 49.549,27.693 49.549,32.149 C49.549,36.605 46.341,39.694 41.648,39.694 Z" id="path-1" class="cls-2" fill-rule="evenodd"/>
</svg>
