<svg xmlns="http://www.w3.org/2000/svg" xmlns:xlink="http://www.w3.org/1999/xlink" preserveAspectRatio="xMidYMid" width="144" height="144" viewBox="0 0 144 144">
  <defs>
    <style>

      .cls-2 {
        fill: #031054;
      }
    </style>
  </defs>
  <path d="M72.000,-0.000 C32.299,-0.000 -0.000,32.299 -0.000,72.000 C-0.000,111.701 32.299,144.000 72.000,144.000 C111.701,144.000 144.000,111.701 144.000,72.000 C144.000,32.299 111.701,-0.000 72.000,-0.000 ZM4.806,72.000 C4.806,34.949 34.949,4.806 72.000,4.806 C88.387,4.806 103.417,10.710 115.091,20.493 C115.091,20.493 78.654,62.181 78.654,62.181 C78.654,62.181 22.909,62.181 22.909,62.181 C22.909,62.181 22.909,83.410 22.909,83.410 C22.909,83.410 60.099,83.410 60.099,83.410 C60.099,83.410 26.720,121.599 26.720,121.599 C13.263,109.303 4.806,91.622 4.806,72.000 ZM64.300,78.604 C64.300,78.604 27.715,78.604 27.715,78.604 C27.715,78.604 27.715,66.987 27.715,66.987 C27.715,66.987 74.454,66.987 74.454,66.987 C74.454,66.987 64.300,78.604 64.300,78.604 ZM80.837,66.987 C80.837,66.987 100.878,66.987 100.878,66.987 C100.878,66.987 100.878,78.604 100.878,78.604 C100.878,78.604 70.684,78.604 70.684,78.604 C70.684,78.604 80.837,66.987 80.837,66.987 ZM72.000,139.194 C56.296,139.194 41.844,133.764 30.392,124.702 C30.392,124.702 66.483,83.410 66.483,83.410 C66.483,83.410 120.074,83.410 120.074,83.410 C120.074,83.410 120.074,62.181 120.074,62.181 C120.074,62.181 85.038,62.181 85.038,62.181 C85.038,62.181 118.659,23.715 118.659,23.715 C131.306,35.941 139.194,53.062 139.194,72.000 C139.194,109.051 109.051,139.194 72.000,139.194 ZM105.684,78.604 C105.684,78.604 105.684,66.987 105.684,66.987 C105.684,66.987 115.268,66.987 115.268,66.987 C115.268,66.987 115.268,78.604 115.268,78.604 C115.268,78.604 105.684,78.604 105.684,78.604 Z" id="path-1" class="cls-2" fill-rule="evenodd"/>
</svg>
