<svg xmlns="http://www.w3.org/2000/svg" xmlns:xlink="http://www.w3.org/1999/xlink" preserveAspectRatio="xMidYMid" width="151" height="74" viewBox="0 0 151 74">
  <defs>
    <style>

      .cls-2 {
        fill: #031054;
      }
    </style>
  </defs>
  <path d="M137.409,27.146 C137.409,27.146 137.409,11.779 137.409,11.779 C137.409,11.779 122.586,11.779 122.586,11.779 C122.586,11.779 122.586,-0.001 122.586,-0.001 C122.586,-0.001 101.727,-0.001 101.727,-0.001 C101.727,-0.001 101.727,27.146 101.727,27.146 C101.727,27.146 51.065,27.146 51.065,27.146 C51.065,27.146 51.065,-0.001 51.065,-0.001 C51.065,-0.001 30.205,-0.001 30.205,-0.001 C30.205,-0.001 30.205,11.779 30.205,11.779 C30.205,11.779 15.382,11.779 15.382,11.779 C15.382,11.779 15.382,27.146 15.382,27.146 C15.382,27.146 -0.000,27.146 -0.000,27.146 C-0.000,27.146 -0.000,46.854 -0.000,46.854 C-0.000,46.854 15.382,46.854 15.382,46.854 C15.382,46.854 15.382,62.219 15.382,62.219 C15.382,62.219 30.205,62.219 30.205,62.219 C30.205,62.219 30.205,74.001 30.205,74.001 C30.205,74.001 51.065,74.001 51.065,74.001 C51.065,74.001 51.065,46.854 51.065,46.854 C51.065,46.854 101.727,46.854 101.727,46.854 C101.727,46.854 101.727,74.001 101.727,74.001 C101.727,74.001 122.586,74.001 122.586,74.001 C122.586,74.001 122.586,62.219 122.586,62.219 C122.586,62.219 137.409,62.219 137.409,62.219 C137.409,62.219 137.409,46.854 137.409,46.854 C137.409,46.854 151.000,46.854 151.000,46.854 C151.000,46.854 151.000,27.146 151.000,27.146 C151.000,27.146 137.409,27.146 137.409,27.146 ZM146.203,42.062 C146.203,42.062 137.409,42.062 137.409,42.062 C137.409,42.062 137.409,31.938 137.409,31.938 C137.409,31.938 146.203,31.938 146.203,31.938 C146.203,31.938 146.203,42.062 146.203,42.062 ZM132.612,57.428 C132.612,57.428 122.586,57.428 122.586,57.428 C122.586,57.428 122.586,16.571 122.586,16.571 C122.586,16.571 132.612,16.571 132.612,16.571 C132.612,16.571 132.612,57.428 132.612,57.428 ZM117.789,69.209 C117.789,69.209 106.524,69.209 106.524,69.209 C106.524,69.209 106.524,4.790 106.524,4.790 C106.524,4.790 117.789,4.790 117.789,4.790 C117.789,4.790 117.789,69.209 117.789,69.209 ZM46.268,69.209 C46.268,69.209 35.002,69.209 35.002,69.209 C35.002,69.209 35.002,4.790 35.002,4.790 C35.002,4.790 46.268,4.790 46.268,4.790 C46.268,4.790 46.268,69.209 46.268,69.209 ZM4.797,31.938 C4.797,31.938 15.382,31.938 15.382,31.938 C15.382,31.938 15.382,42.062 15.382,42.062 C15.382,42.062 4.797,42.062 4.797,42.062 C4.797,42.062 4.797,31.938 4.797,31.938 ZM20.179,16.571 C20.179,16.571 30.205,16.571 30.205,16.571 C30.205,16.571 30.205,57.428 30.205,57.428 C30.205,57.428 20.179,57.428 20.179,57.428 C20.179,57.428 20.179,16.571 20.179,16.571 ZM51.065,31.938 C51.065,31.938 101.727,31.938 101.727,31.938 C101.727,31.938 101.727,42.062 101.727,42.062 C101.727,42.062 51.065,42.062 51.065,42.062 C51.065,42.062 51.065,31.938 51.065,31.938 Z" id="path-1" class="cls-2" fill-rule="evenodd"/>
</svg>
