<svg xmlns="http://www.w3.org/2000/svg" xmlns:xlink="http://www.w3.org/1999/xlink" preserveAspectRatio="xMidYMid" width="64" height="74" viewBox="0 0 64 74">
  <defs>
    <style>

      .cls-2 {
        fill: #ffffff;
      }
    </style>
  </defs>
  <path d="M59.934,39.903 C58.525,39.131 55.825,38.259 52.102,39.739 C52.102,39.739 52.102,32.836 52.102,32.836 C52.102,28.328 35.781,27.655 26.051,27.655 C16.322,27.655 0.000,28.328 0.000,32.836 C0.000,32.836 0.000,63.202 0.000,63.202 C0.000,64.201 0.730,72.977 26.015,73.532 C26.015,73.532 26.086,73.532 26.086,73.532 C51.372,72.977 52.102,64.201 52.102,63.202 C52.102,63.202 52.102,58.340 52.102,58.340 C56.165,58.223 58.776,56.668 60.294,55.266 C63.029,52.742 64.000,49.258 64.000,47.040 C64.000,44.009 62.442,41.274 59.934,39.903 ZM26.051,30.875 C37.471,30.875 44.722,31.946 47.679,32.836 C44.722,33.726 37.471,34.797 26.051,34.797 C14.631,34.797 7.380,33.726 4.424,32.836 C7.380,31.946 14.631,30.875 26.051,30.875 ZM26.051,70.311 C4.082,69.822 3.227,63.202 3.223,63.202 C3.223,63.202 3.223,35.746 3.223,35.746 C8.472,37.661 18.993,38.017 26.051,38.017 C33.109,38.017 43.631,37.661 48.880,35.746 C48.880,35.746 48.881,63.135 48.881,63.135 C48.876,63.202 48.020,69.822 26.051,70.311 ZM58.107,52.901 C56.585,54.306 54.558,55.046 52.102,55.126 C52.102,55.126 52.102,43.293 52.102,43.293 C54.494,42.013 56.700,41.806 58.387,42.727 C59.861,43.534 60.777,45.186 60.777,47.040 C60.777,48.731 59.951,51.199 58.107,52.901 ZM39.367,11.951 C40.237,12.700 40.924,13.291 41.255,14.280 C41.625,15.387 41.401,16.785 40.699,17.757 C39.974,18.763 38.784,19.294 37.256,19.294 C37.256,19.294 37.256,22.514 37.256,22.514 C39.826,22.514 41.977,21.492 43.315,19.639 C44.633,17.811 45.014,15.368 44.312,13.263 C43.702,11.430 42.515,10.411 41.469,9.512 C40.671,8.825 39.982,8.233 39.536,7.306 C39.022,6.234 39.141,5.000 39.842,4.160 C40.611,3.238 41.887,2.964 43.434,3.384 C43.434,3.384 44.281,0.278 44.281,0.278 C41.532,-0.470 38.944,0.209 37.366,2.098 C35.860,3.903 35.572,6.494 36.631,8.699 C37.368,10.233 38.430,11.147 39.367,11.951 ZM26.475,11.951 C27.345,12.700 28.033,13.291 28.363,14.280 C28.733,15.387 28.510,16.785 27.808,17.757 C27.082,18.763 25.893,19.294 24.365,19.294 C24.365,19.294 24.365,22.514 24.365,22.514 C26.935,22.514 29.086,21.492 30.423,19.639 C31.742,17.811 32.123,15.368 31.421,13.263 C30.810,11.430 29.624,10.411 28.578,9.512 C27.780,8.825 27.090,8.233 26.645,7.306 C26.131,6.234 26.250,5.000 26.951,4.160 C27.720,3.238 28.996,2.964 30.543,3.384 C30.543,3.384 31.390,0.278 31.390,0.278 C28.641,-0.470 26.053,0.209 24.475,2.098 C22.969,3.903 22.681,6.494 23.740,8.699 C24.477,10.233 25.539,11.147 26.475,11.951 ZM13.584,11.951 C14.454,12.700 15.142,13.291 15.472,14.280 C15.842,15.387 15.619,16.785 14.917,17.757 C14.191,18.763 13.002,19.294 11.474,19.294 C11.474,19.294 11.474,22.514 11.474,22.514 C14.044,22.514 16.194,21.492 17.532,19.639 C18.851,17.811 19.232,15.368 18.530,13.263 C17.919,11.430 16.733,10.411 15.686,9.512 C14.888,8.825 14.199,8.233 13.754,7.306 C13.239,6.234 13.359,5.000 14.059,4.160 C14.829,3.238 16.105,2.964 17.652,3.384 C17.652,3.384 18.499,0.278 18.499,0.278 C15.751,-0.470 13.162,0.209 11.584,2.098 C10.078,3.903 9.790,6.494 10.849,8.699 C11.586,10.233 12.648,11.147 13.584,11.951 Z" id="path-1" class="cls-2" fill-rule="evenodd"/>
</svg>
