<svg xmlns="http://www.w3.org/2000/svg" xmlns:xlink="http://www.w3.org/1999/xlink" preserveAspectRatio="xMidYMid" width="144" height="144" viewBox="0 0 144 144">
  <defs>
    <style>

      .cls-2 {
        fill: #031054;
      }
    </style>
  </defs>
  <path d="M72.000,0.000 C32.300,0.000 0.000,32.299 0.000,72.000 C0.000,111.701 32.300,144.000 72.000,144.000 C111.702,144.000 144.000,111.701 144.000,72.000 C144.000,32.299 111.702,0.000 72.000,0.000 ZM72.000,139.194 C34.950,139.194 4.806,109.051 4.806,72.000 C4.806,34.949 34.950,4.806 72.000,4.806 C109.051,4.806 139.194,34.949 139.194,72.000 C139.194,109.051 109.051,139.194 72.000,139.194 ZM80.634,35.852 C80.634,35.852 51.795,35.852 51.795,35.852 C51.795,35.852 51.795,112.797 51.795,112.797 C51.795,112.797 58.370,112.797 58.370,112.797 C58.370,112.797 58.370,80.843 58.370,80.843 C58.370,80.843 80.634,80.843 80.634,80.843 C95.285,80.843 103.821,70.460 103.821,58.348 C103.821,46.235 95.400,35.852 80.634,35.852 ZM79.942,74.844 C79.942,74.844 58.370,74.844 58.370,74.844 C58.370,74.844 58.370,41.852 58.370,41.852 C58.370,41.852 79.942,41.852 79.942,41.852 C90.209,41.852 96.900,48.657 96.900,58.348 C96.900,67.923 90.209,74.844 79.942,74.844 Z" id="path-1" class="cls-2" fill-rule="evenodd"/>
</svg>
