<svg xmlns="http://www.w3.org/2000/svg" xmlns:xlink="http://www.w3.org/1999/xlink" preserveAspectRatio="xMidYMid" width="35" height="34" viewBox="0 0 35 34">
  <defs>
    <style>

      .cls-2 {
        fill: #031054;
      }
    </style>
  </defs>
  <path d="M28.540,10.452 C26.847,10.452 25.317,11.130 24.164,12.213 C24.164,12.213 12.860,7.156 12.860,7.156 C12.878,6.956 12.920,6.764 12.920,6.560 C12.920,2.950 10.022,0.013 6.460,0.013 C2.898,0.013 -0.000,2.950 -0.000,6.560 C-0.000,10.171 2.898,13.108 6.460,13.108 C8.708,13.108 10.687,11.935 11.844,10.165 C11.844,10.165 22.449,14.910 22.449,14.910 C22.227,15.570 22.080,16.265 22.080,17.000 C22.080,17.693 22.216,18.348 22.414,18.975 C22.414,18.975 11.778,23.734 11.778,23.734 C10.611,22.020 8.665,20.891 6.460,20.891 C2.898,20.891 -0.000,23.828 -0.000,27.439 C-0.000,31.049 2.898,33.986 6.460,33.986 C10.022,33.986 12.920,31.049 12.920,27.439 C12.920,27.193 12.874,26.959 12.848,26.719 C12.848,26.719 24.063,21.701 24.063,21.701 C25.225,22.839 26.800,23.547 28.540,23.547 C32.102,23.547 35.000,20.610 35.000,17.000 C35.000,13.389 32.102,10.452 28.540,10.452 ZM6.460,9.940 C4.621,9.940 3.126,8.424 3.126,6.560 C3.126,4.697 4.621,3.182 6.460,3.182 C8.298,3.182 9.794,4.697 9.794,6.560 C9.794,8.424 8.298,9.940 6.460,9.940 ZM6.460,30.818 C4.621,30.818 3.126,29.302 3.126,27.439 C3.126,25.576 4.621,24.059 6.460,24.059 C8.298,24.059 9.794,25.576 9.794,27.439 C9.794,29.302 8.298,30.818 6.460,30.818 ZM28.540,20.379 C26.702,20.379 25.206,18.863 25.206,17.000 C25.206,15.136 26.702,13.620 28.540,13.620 C30.379,13.620 31.874,15.136 31.874,17.000 C31.874,18.863 30.379,20.379 28.540,20.379 Z" id="path-1" class="cls-2" fill-rule="evenodd"/>
</svg>
