<svg xmlns="http://www.w3.org/2000/svg" xmlns:xlink="http://www.w3.org/1999/xlink" preserveAspectRatio="xMidYMid" width="50" height="50" viewBox="0 0 50 50">
  <defs>
    <style>

      .cls-2 {
        fill: #FFFFFF;
      }
    </style>
  </defs>
  <path d="M46.776,25.000 C46.776,37.008 37.007,46.776 24.999,46.776 C12.991,46.776 3.223,37.008 3.223,25.000 C3.223,12.993 12.991,3.224 24.999,3.224 C32.230,3.224 39.008,6.859 43.039,12.801 C43.039,12.801 35.397,12.801 35.397,12.801 C35.397,12.801 35.397,16.025 35.397,16.025 C35.397,16.025 47.888,16.025 47.888,16.025 C47.888,16.025 47.888,3.534 47.888,3.534 C47.888,3.534 44.664,3.534 44.664,3.534 C44.664,3.534 44.664,9.573 44.664,9.573 C39.963,3.600 32.705,-0.000 24.999,-0.000 C11.214,-0.000 -0.000,11.215 -0.000,25.000 C-0.000,38.785 11.214,50.000 24.999,50.000 C38.784,50.000 50.000,38.785 50.000,25.000 C50.000,25.000 46.776,25.000 46.776,25.000 ZM14.898,28.747 C13.928,28.747 12.673,28.362 11.854,27.576 C11.854,27.576 10.399,29.533 10.399,29.533 C11.285,30.537 12.873,31.289 15.014,31.289 C17.790,31.289 19.630,29.935 19.630,27.978 C19.630,26.372 18.192,25.453 17.005,25.336 C18.326,25.118 19.446,24.132 19.446,22.828 C19.446,20.988 17.858,19.767 15.014,19.767 C12.958,19.767 11.503,20.519 10.550,21.573 C10.550,21.573 11.938,23.379 11.938,23.379 C12.724,22.676 13.693,22.309 14.713,22.309 C15.784,22.309 16.586,22.626 16.586,23.329 C16.586,23.914 15.935,24.198 14.781,24.198 C14.362,24.198 13.493,24.198 13.276,24.182 C13.276,24.182 13.276,26.740 13.276,26.740 C13.443,26.724 14.296,26.707 14.781,26.707 C16.303,26.707 16.770,27.025 16.770,27.660 C16.770,28.279 16.135,28.747 14.898,28.747 ZM30.944,25.520 C30.944,28.463 32.466,31.289 35.727,31.289 C38.989,31.289 40.511,28.463 40.511,25.520 C40.511,22.576 38.989,19.767 35.727,19.767 C32.466,19.767 30.944,22.576 30.944,25.520 ZM37.600,25.520 C37.600,27.493 37.065,28.747 35.727,28.747 C34.389,28.747 33.854,27.493 33.854,25.520 C33.854,23.546 34.389,22.309 35.727,22.309 C37.065,22.309 37.600,23.546 37.600,25.520 ZM26.166,22.309 C27.069,22.309 27.688,22.543 28.306,23.045 C28.306,23.045 29.543,20.837 29.543,20.837 C28.707,20.185 27.470,19.767 26.166,19.767 C22.788,19.767 20.630,21.974 20.630,25.536 C20.630,28.731 22.169,31.289 25.698,31.289 C28.289,31.289 30.146,29.667 30.146,27.376 C30.146,25.001 28.289,23.714 26.283,23.714 C25.163,23.714 24.093,24.249 23.540,24.985 C23.540,24.985 23.540,24.851 23.540,24.851 C23.540,23.295 24.795,22.309 26.166,22.309 ZM25.413,26.155 C26.283,26.155 27.236,26.540 27.236,27.476 C27.236,28.095 26.584,28.747 25.514,28.747 C24.159,28.747 23.624,27.811 23.540,26.907 C24.025,26.389 24.711,26.155 25.413,26.155 Z" id="path-1" class="cls-2" fill-rule="evenodd"/>
</svg>
