<svg xmlns="http://www.w3.org/2000/svg" xmlns:xlink="http://www.w3.org/1999/xlink" preserveAspectRatio="xMidYMid" width="27" height="34" viewBox="0 0 27 34">
  <path d="M24.757,13.943 C24.757,13.943 24.485,14.219 24.485,14.219 C23.842,14.869 23.542,15.772 23.672,16.668 C23.672,16.668 23.727,17.048 23.727,17.048 C23.953,18.614 22.870,20.072 21.280,20.345 C21.280,20.345 21.228,20.354 21.228,20.354 C21.228,20.354 25.908,29.192 25.908,29.192 C25.908,29.192 20.398,29.331 20.398,29.331 C20.398,29.331 17.294,33.585 17.294,33.585 C17.294,33.585 12.787,25.067 12.787,25.067 C12.787,25.067 8.614,33.585 8.614,33.585 C8.614,33.585 5.510,29.331 5.510,29.331 C5.510,29.331 0.001,29.192 0.001,29.192 C0.001,29.192 4.680,20.354 4.680,20.354 C4.680,20.354 4.628,20.345 4.628,20.345 C3.038,20.072 1.955,18.614 2.181,17.048 C2.181,17.048 2.236,16.668 2.236,16.668 C2.366,15.772 2.066,14.869 1.423,14.219 C1.423,14.219 1.151,13.943 1.151,13.943 C0.028,12.806 0.028,11.003 1.151,9.867 C1.151,9.867 1.423,9.591 1.423,9.591 C2.066,8.941 2.366,8.037 2.236,7.142 C2.236,7.142 2.181,6.762 2.181,6.762 C1.955,5.196 3.038,3.737 4.628,3.464 C4.628,3.464 5.015,3.398 5.015,3.398 C5.925,3.242 6.710,2.683 7.143,1.885 C7.143,1.885 7.327,1.545 7.327,1.545 C8.084,0.148 9.835,-0.409 11.286,0.286 C11.286,0.286 11.639,0.454 11.639,0.454 C12.469,0.851 13.439,0.851 14.269,0.454 C14.269,0.454 14.622,0.286 14.622,0.286 C16.072,-0.409 17.824,0.148 18.581,1.545 C18.581,1.545 18.765,1.885 18.765,1.885 C19.198,2.683 19.983,3.242 20.893,3.398 C20.893,3.398 21.280,3.464 21.280,3.464 C22.870,3.737 23.953,5.196 23.727,6.762 C23.727,6.762 23.672,7.142 23.672,7.142 C23.542,8.037 23.842,8.941 24.485,9.591 C24.485,9.591 24.757,9.867 24.757,9.867 C25.880,11.003 25.880,12.806 24.757,13.943 ZM12.954,4.771 C8.929,4.771 5.667,7.965 5.667,11.905 C5.667,15.845 8.929,19.039 12.954,19.039 C16.979,19.039 20.242,15.845 20.242,11.905 C20.242,7.965 16.979,4.771 12.954,4.771 Z" fill="#031054" fill-rule="evenodd"/>
</svg>
