<svg xmlns="http://www.w3.org/2000/svg" xmlns:xlink="http://www.w3.org/1999/xlink" preserveAspectRatio="xMidYMid" width="32" height="32" viewBox="0 0 32 32">
  <defs>
    <style>

      .cls-2 {
        fill: #FFFFFF;
      }
    </style>
  </defs>
  <path d="M16.000,0.000 C7.178,0.000 0.000,7.178 0.000,16.000 C0.000,24.822 7.178,32.000 16.000,32.000 C24.822,32.000 32.000,24.822 32.000,16.000 C32.000,7.178 24.822,0.000 16.000,0.000 ZM16.000,28.822 C8.930,28.822 3.178,23.070 3.178,16.000 C3.178,8.930 8.930,3.178 16.000,3.178 C23.070,3.178 28.822,8.930 28.822,16.000 C28.822,23.070 23.070,28.822 16.000,28.822 ZM14.412,23.607 C14.412,23.607 17.590,23.607 17.590,23.607 C17.590,23.607 17.590,14.302 17.590,14.302 C17.590,14.302 14.412,14.302 14.412,14.302 C14.412,14.302 14.412,23.607 14.412,23.607 ZM17.589,8.873 C17.589,8.873 14.411,8.873 14.411,8.873 C14.411,8.873 14.411,11.124 14.411,11.124 C14.411,11.124 17.589,11.124 17.589,11.124 C17.589,11.124 17.589,8.873 17.589,8.873 Z" id="path-1" class="cls-2" fill-rule="evenodd"/>
</svg>
