<svg xmlns="http://www.w3.org/2000/svg" xmlns:xlink="http://www.w3.org/1999/xlink" preserveAspectRatio="xMidYMid" width="50" height="73" viewBox="0 0 50 73">
  <defs>
    <style>

      .cls-2 {
        fill: #031054;
      }
    </style>
  </defs>
  <path d="M49.981,20.275 C49.783,24.105 46.521,27.403 45.267,28.668 C45.264,28.671 45.260,28.674 45.257,28.677 C45.257,28.677 45.257,73.000 45.257,73.000 C45.257,73.000 33.836,73.000 33.836,73.000 C33.836,73.000 33.836,28.677 33.836,28.677 C33.833,28.674 33.830,28.671 33.826,28.668 C32.532,27.363 29.093,23.897 29.093,19.914 C29.093,19.914 29.093,-0.001 29.093,-0.001 C29.093,-0.001 35.003,-0.001 35.003,-0.001 C35.003,-0.001 38.219,-0.001 38.219,-0.001 C38.219,-0.001 40.804,-0.001 40.804,-0.001 C40.804,-0.001 44.020,-0.001 44.020,-0.001 C44.020,-0.001 50.000,-0.001 50.000,-0.001 C50.000,-0.001 50.000,20.087 50.000,20.087 C50.000,20.151 49.989,20.212 49.981,20.275 ZM46.784,3.212 C46.784,3.212 44.020,3.212 44.020,3.212 C44.020,3.212 44.020,17.905 44.020,17.905 C44.020,17.905 44.020,18.077 44.020,18.077 C44.020,18.077 44.002,18.077 44.002,18.077 C43.915,18.882 43.242,19.512 42.412,19.512 C41.582,19.512 40.908,18.882 40.821,18.077 C40.821,18.077 40.804,18.077 40.804,18.077 C40.804,18.077 40.804,17.905 40.804,17.905 C40.804,17.905 40.804,3.212 40.804,3.212 C40.804,3.212 38.219,3.212 38.219,3.212 C38.219,3.212 38.219,18.077 38.219,18.077 C38.219,18.077 38.219,18.105 38.219,18.105 C38.219,18.105 38.216,18.105 38.216,18.105 C38.201,18.979 37.490,19.684 36.611,19.684 C35.732,19.684 35.021,18.979 35.006,18.105 C35.006,18.105 35.003,18.105 35.003,18.105 C35.003,18.105 35.003,18.077 35.003,18.077 C35.003,18.077 35.003,3.212 35.003,3.212 C35.003,3.212 32.309,3.212 32.309,3.212 C32.309,3.212 32.309,19.914 32.309,19.914 C32.309,22.574 35.072,25.357 36.111,26.405 C36.678,26.976 37.052,27.353 37.052,28.064 C37.052,28.064 37.052,69.787 37.052,69.787 C37.052,69.787 42.041,69.787 42.041,69.787 C42.041,69.787 42.041,28.064 42.041,28.064 C42.041,27.353 42.415,26.976 42.982,26.405 C44.021,25.357 46.784,22.574 46.784,19.914 C46.784,19.914 46.784,3.212 46.784,3.212 ZM17.669,30.045 C17.669,30.045 17.669,73.000 17.669,73.000 C17.669,73.000 6.249,73.000 6.249,73.000 C6.249,73.000 6.249,30.045 6.249,30.045 C2.426,27.287 0.000,21.899 0.000,16.011 C0.000,7.214 5.365,0.057 11.959,0.057 C18.553,0.057 23.917,7.214 23.917,16.011 C23.917,21.900 21.491,27.287 17.669,30.045 ZM11.959,3.271 C7.137,3.271 3.216,8.986 3.216,16.011 C3.216,21.185 5.363,25.814 8.684,27.805 C8.684,27.805 9.465,28.272 9.465,28.272 C9.465,28.272 9.465,69.787 9.465,69.787 C9.465,69.787 14.452,69.787 14.452,69.787 C14.452,69.787 14.452,28.272 14.452,28.272 C14.452,28.272 15.233,27.804 15.233,27.804 C18.554,25.815 20.701,21.186 20.701,16.011 C20.701,8.986 16.780,3.271 11.959,3.271 Z" id="path-1" class="cls-2" fill-rule="evenodd"/>
</svg>
