<svg xmlns="http://www.w3.org/2000/svg" xmlns:xlink="http://www.w3.org/1999/xlink" preserveAspectRatio="xMidYMid" width="72" height="73" viewBox="0 0 72 73">
  <defs>
    <style>

      .cls-2 {
        fill: #031054;
      }
    </style>
  </defs>
  <path d="M66.072,19.207 C66.072,15.732 61.107,13.605 58.342,13.605 C58.342,13.605 58.340,13.605 58.340,13.605 C58.340,13.605 54.209,13.755 54.209,13.755 C54.209,13.755 46.349,0.000 46.349,0.000 C46.349,0.000 38.146,0.000 38.146,0.000 C38.146,0.000 44.196,14.118 44.196,14.118 C44.196,14.118 29.922,14.635 29.922,14.635 C29.922,14.635 27.093,11.241 27.093,11.241 C27.093,11.241 18.969,11.241 18.969,11.241 C18.969,11.241 22.699,19.135 22.699,19.135 C22.699,19.135 18.969,27.028 18.969,27.028 C18.969,27.028 27.093,27.028 27.093,27.028 C27.093,27.028 29.801,23.777 29.801,23.777 C29.801,23.777 44.134,24.296 44.134,24.296 C44.134,24.296 38.146,38.269 38.146,38.269 C38.146,38.269 46.349,38.269 46.349,38.269 C46.349,38.269 54.128,24.657 54.128,24.657 C54.128,24.657 58.398,24.811 58.398,24.811 C61.103,24.811 66.072,22.683 66.072,19.207 ZM58.457,21.594 C58.457,21.594 52.299,21.372 52.299,21.372 C52.299,21.372 44.483,35.051 44.483,35.051 C44.483,35.051 43.025,35.051 43.025,35.051 C43.025,35.051 48.941,21.250 48.941,21.250 C48.941,21.250 29.817,20.558 29.817,20.558 C29.612,20.558 29.413,20.548 29.218,20.531 C29.218,20.531 28.379,20.457 28.379,20.457 C28.379,20.457 25.585,23.810 25.585,23.810 C25.585,23.810 24.049,23.810 24.049,23.810 C24.049,23.810 26.259,19.135 26.259,19.135 C26.259,19.135 24.049,14.459 24.049,14.459 C24.049,14.459 25.585,14.459 25.585,14.459 C25.585,14.459 28.488,17.941 28.488,17.941 C28.488,17.941 29.312,17.881 29.312,17.881 C29.477,17.869 29.644,17.857 29.875,17.856 C29.875,17.856 49.002,17.163 49.002,17.163 C49.002,17.163 43.025,3.218 43.025,3.218 C43.025,3.218 44.483,3.218 44.483,3.218 C44.483,3.218 52.381,17.040 52.381,17.040 C52.381,17.040 58.398,16.822 58.398,16.822 C60.235,16.822 62.855,18.364 62.855,19.207 C62.855,20.050 60.235,21.594 58.457,21.594 ZM34.439,53.519 C34.439,53.519 30.920,53.519 30.920,53.519 C30.920,53.519 30.920,58.548 30.920,58.548 C30.920,58.548 34.439,58.548 34.439,58.548 C34.439,58.548 34.439,53.519 34.439,53.519 ZM42.484,53.519 C42.484,53.519 38.964,53.519 38.964,53.519 C38.964,53.519 38.964,58.548 38.964,58.548 C38.964,58.548 42.484,58.548 42.484,58.548 C42.484,58.548 42.484,53.519 42.484,53.519 ZM50.528,53.519 C50.528,53.519 47.009,53.519 47.009,53.519 C47.009,53.519 47.009,58.548 47.009,58.548 C47.009,58.548 50.528,58.548 50.528,58.548 C50.528,58.548 50.528,53.519 50.528,53.519 ZM26.394,53.519 C26.394,53.519 22.875,53.519 22.875,53.519 C22.875,53.519 22.875,58.548 22.875,58.548 C22.875,58.548 26.394,58.548 26.394,58.548 C26.394,58.548 26.394,53.519 26.394,53.519 ZM0.000,69.913 C0.000,69.913 7.320,69.913 7.320,69.913 C7.796,71.685 9.400,73.000 11.321,73.000 C13.241,73.000 14.845,71.685 15.321,69.913 C15.321,69.913 41.510,69.913 41.510,69.913 C41.985,71.685 43.590,73.000 45.510,73.000 C47.431,73.000 49.035,71.685 49.511,69.913 C49.511,69.913 56.504,69.913 56.504,69.913 C56.504,69.913 56.504,47.183 56.504,47.183 C56.504,47.183 0.000,47.183 0.000,47.183 C0.000,47.183 0.000,69.913 0.000,69.913 ZM3.217,58.548 C3.217,58.548 10.305,58.548 10.305,58.548 C10.305,58.548 10.305,53.519 10.305,53.519 C10.305,53.519 3.217,53.519 3.217,53.519 C3.217,53.519 3.217,50.401 3.217,50.401 C3.217,50.401 53.287,50.401 53.287,50.401 C53.287,50.401 53.287,66.695 53.287,66.695 C53.287,66.695 49.053,66.695 49.053,66.695 C48.323,65.495 47.015,64.683 45.510,64.683 C44.005,64.683 42.698,65.495 41.967,66.695 C41.967,66.695 14.864,66.695 14.864,66.695 C14.134,65.495 12.826,64.683 11.321,64.683 C9.816,64.683 8.508,65.495 7.778,66.695 C7.778,66.695 3.217,66.695 3.217,66.695 C3.217,66.695 3.217,58.548 3.217,58.548 ZM18.350,53.519 C18.350,53.519 14.830,53.519 14.830,53.519 C14.830,53.519 14.830,58.548 14.830,58.548 C14.830,58.548 18.350,58.548 18.350,58.548 C18.350,58.548 18.350,53.519 18.350,53.519 ZM60.185,52.962 C60.185,52.962 60.185,56.180 60.185,56.180 C60.185,56.180 72.000,56.180 72.000,56.180 C72.000,56.180 72.000,52.962 72.000,52.962 C72.000,52.962 60.185,52.962 60.185,52.962 ZM60.185,64.226 C60.185,64.226 65.967,64.226 65.967,64.226 C65.967,64.226 65.967,61.009 65.967,61.009 C65.967,61.009 60.185,61.009 60.185,61.009 C60.185,61.009 60.185,64.226 60.185,64.226 ZM15.688,12.732 C15.688,12.732 3.872,12.732 3.872,12.732 C3.872,12.732 3.872,15.950 3.872,15.950 C3.872,15.950 15.688,15.950 15.688,15.950 C15.688,15.950 15.688,12.732 15.688,12.732 ZM15.688,23.996 C15.688,23.996 15.688,20.778 15.688,20.778 C15.688,20.778 9.905,20.778 9.905,20.778 C9.905,20.778 9.905,23.996 9.905,23.996 C9.905,23.996 15.688,23.996 15.688,23.996 Z" id="path-1" class="cls-2" fill-rule="evenodd"/>
</svg>
