<svg xmlns="http://www.w3.org/2000/svg" xmlns:xlink="http://www.w3.org/1999/xlink" preserveAspectRatio="xMidYMid" width="74" height="55" viewBox="0 0 74 55">
  <defs>
    <style>

      .cls-2 {
        fill: #031054;
      }
    </style>
  </defs>
  <path d="M69.743,21.239 C69.743,21.239 74.000,19.047 74.000,19.047 C74.000,19.047 37.001,-0.000 37.001,-0.000 C37.001,-0.000 -0.000,19.047 -0.000,19.047 C-0.000,19.047 11.471,24.952 11.471,24.952 C11.471,24.952 11.471,39.642 11.471,39.642 C11.471,39.642 37.001,50.483 37.001,50.483 C37.001,50.483 62.531,39.642 62.531,39.642 C62.531,39.642 62.531,24.951 62.531,24.951 C62.531,24.951 66.500,22.908 66.500,22.908 C66.500,22.908 66.500,42.526 66.500,42.526 C66.500,42.526 63.918,42.526 63.918,42.526 C63.918,42.526 63.918,54.997 63.918,54.997 C63.918,54.997 73.245,54.997 73.245,54.997 C73.245,54.997 73.245,42.526 73.245,42.526 C73.245,42.526 69.743,42.526 69.743,42.526 C69.743,42.526 69.743,21.239 69.743,21.239 ZM59.287,37.491 C59.287,37.491 37.001,46.954 37.001,46.954 C37.001,46.954 14.714,37.491 14.714,37.491 C14.714,37.491 14.714,26.622 14.714,26.622 C14.714,26.622 37.001,38.094 37.001,38.094 C37.001,38.094 59.287,26.621 59.287,26.621 C59.287,26.621 59.287,37.491 59.287,37.491 ZM37.001,34.441 C37.001,34.441 7.095,19.047 7.095,19.047 C7.095,19.047 37.001,3.652 37.001,3.652 C37.001,3.652 66.905,19.047 66.905,19.047 C66.905,19.047 37.001,34.441 37.001,34.441 ZM70.001,45.774 C70.001,45.774 70.001,51.749 70.001,51.749 C70.001,51.749 67.162,51.749 67.162,51.749 C67.162,51.749 67.162,45.774 67.162,45.774 C67.162,45.774 70.001,45.774 70.001,45.774 ZM33.645,18.337 C33.645,20.187 35.148,21.693 36.996,21.693 C38.844,21.693 40.349,20.187 40.349,18.337 C40.349,16.486 38.844,14.980 36.996,14.980 C35.148,14.980 33.645,16.486 33.645,18.337 Z" id="path-1" class="cls-2" fill-rule="evenodd"/>
</svg>
