<svg xmlns="http://www.w3.org/2000/svg" xmlns:xlink="http://www.w3.org/1999/xlink" preserveAspectRatio="xMidYMid" width="32" height="33" viewBox="0 0 32 33">
  <defs>
    <style>

      .cls-2 {
        fill: #031054;
      }
    </style>
  </defs>
  <path d="M27.314,27.289 C21.075,33.528 10.925,33.527 4.686,27.289 C-1.552,21.051 -1.552,10.901 4.687,4.662 C10.925,-1.577 21.075,-1.577 27.313,4.662 C33.552,10.901 33.553,21.050 27.314,27.289 ZM25.066,6.908 C20.067,1.910 11.933,1.910 6.934,6.909 C1.935,11.908 1.934,20.043 6.933,25.042 C11.932,30.041 20.067,30.041 25.067,25.042 C30.065,20.043 30.065,11.908 25.066,6.908 ZM20.256,22.478 C20.256,22.478 16.000,18.223 16.000,18.223 C16.000,18.223 11.745,22.478 11.745,22.478 C11.745,22.478 9.498,20.231 9.498,20.231 C9.498,20.231 13.753,15.976 13.753,15.976 C13.753,15.976 9.497,11.721 9.497,11.721 C9.497,11.721 11.745,9.473 11.745,9.473 C11.745,9.473 16.000,13.728 16.000,13.728 C16.000,13.728 20.255,9.473 20.255,9.473 C20.255,9.473 22.502,11.720 22.502,11.720 C22.502,11.720 18.247,15.975 18.247,15.975 C18.247,15.975 22.503,20.231 22.503,20.231 C22.503,20.231 20.256,22.478 20.256,22.478 Z" id="path-1" class="cls-2" fill-rule="evenodd"/>
</svg>
