<svg xmlns="http://www.w3.org/2000/svg" xmlns:xlink="http://www.w3.org/1999/xlink" preserveAspectRatio="xMidYMid" width="38" height="38" viewBox="0 0 38 38">
  <defs>
    <style>

      .cls-2 {
        fill: #df9e02;
      }
    </style>
  </defs>
  <path d="M19.000,0.000 C8.524,0.000 -0.000,8.524 -0.000,19.001 C-0.000,29.476 8.524,38.000 19.000,38.000 C29.476,38.000 38.000,29.476 38.000,19.001 C38.000,8.524 29.476,0.000 19.000,0.000 ZM16.863,27.816 C16.863,27.816 9.123,20.108 9.123,20.108 C9.123,20.108 12.048,17.170 12.048,17.170 C12.048,17.170 16.576,21.676 16.576,21.676 C16.576,21.676 24.679,11.930 24.679,11.930 C24.679,11.930 27.866,14.581 27.866,14.581 C27.866,14.581 16.863,27.816 16.863,27.816 Z" id="path-1" class="cls-2" fill-rule="evenodd"/>
</svg>
