<svg xmlns="http://www.w3.org/2000/svg" xmlns:xlink="http://www.w3.org/1999/xlink" preserveAspectRatio="xMidYMid" width="143" height="139" viewBox="0 0 143 139">
  <defs>
    <style>

      .cls-3 {
        filter: url(#color-overlay-1);
        font-size: 13px;
      }

      .cls-4 {
        fill: #6d6c20;
        text-anchor: middle;
        font-size: 13px;
        font-family: "proxima-nova";
      }

      .cls-6 {
        fill: #ffffff;
        filter: url(#color-overlay-1);
      }
    </style>

    <filter id="color-overlay-1" filterUnits="userSpaceOnUse">
      <feFlood flood-color="#595818" flood-opacity="1"/>
      <feComposite operator="in" in2="SourceGraphic"/>
      <feBlend mode="normal" in2="SourceGraphic" result="colorOverlay"/>
    </filter>
  </defs>
  <g id="armed-forcessvg">
    <text class="cls-3" transform="translate(-70 100) scale(2)"><tspan x="72px" class="cls-4">ARMED</tspan><tspan dy="1em" x="72px" class="cls-4">FORCES</tspan></text>
    <path d="M48.868,43.621 C47.750,44.967 46.614,46.300 45.372,47.629 C43.375,49.765 40.673,52.333 36.696,51.516 C36.313,51.439 36.117,51.242 36.054,51.013 C35.999,50.820 36.007,50.602 36.360,50.175 C38.895,47.157 40.176,45.460 42.195,42.175 C40.764,43.761 38.414,46.084 36.845,47.534 C33.592,50.548 29.715,51.492 26.734,50.003 C26.376,49.820 26.238,49.579 26.235,49.337 C26.233,49.132 26.303,48.918 26.763,48.590 C31.005,45.539 33.673,42.733 36.960,39.263 C34.378,41.213 31.757,43.053 29.099,44.783 C24.638,47.668 19.072,48.338 15.732,45.256 C15.432,44.978 15.359,44.702 15.424,44.464 C15.479,44.263 15.605,44.071 16.153,43.871 C22.230,41.604 27.616,38.449 32.524,35.267 C28.721,36.917 24.901,38.382 21.066,39.669 C15.902,41.389 10.224,40.633 7.723,36.735 C7.498,36.384 7.496,36.095 7.624,35.875 C7.731,35.689 7.906,35.530 8.496,35.472 C15.746,34.714 22.492,32.775 28.710,30.618 C23.661,31.428 18.662,31.981 13.709,32.281 C8.156,32.606 2.760,30.356 1.350,25.850 C1.222,25.443 1.300,25.159 1.486,24.975 C1.642,24.821 1.856,24.710 2.454,24.811 C11.122,26.207 19.562,25.939 27.410,25.260 C21.664,24.785 16.056,24.024 10.579,22.984 C5.000,21.921 0.235,18.348 -0.015,13.539 C-0.036,13.106 0.113,12.843 0.342,12.707 C0.536,12.593 0.776,12.539 1.345,12.783 C10.023,16.541 18.910,18.547 27.345,19.911 C21.066,17.814 15.038,15.416 9.258,12.726 C4.010,10.285 0.204,5.564 1.178,0.744 C1.269,0.309 1.483,0.086 1.744,0.010 C1.964,-0.056 2.209,-0.037 2.715,0.337 C14.367,8.922 26.768,14.269 38.902,18.500 C40.174,18.942 40.860,19.215 41.623,20.770 C47.168,32.081 56.123,35.048 64.597,35.787 C65.615,33.232 66.289,29.934 66.482,28.874 C67.114,25.663 68.309,24.219 70.763,24.125 C72.369,24.065 74.173,24.299 76.016,25.000 C79.024,25.122 79.593,26.576 79.528,28.034 C78.251,27.798 76.371,28.196 75.497,28.877 C75.692,29.936 76.361,33.232 77.379,35.787 C85.853,35.048 94.811,32.081 100.351,20.770 C101.116,19.215 101.802,18.942 103.071,18.500 C115.211,14.269 127.606,8.922 139.258,0.337 C139.767,-0.037 140.012,-0.056 140.232,0.010 C140.493,0.086 140.707,0.309 140.798,0.744 C141.772,5.564 137.966,10.285 132.718,12.726 C126.938,15.416 120.910,17.814 114.631,19.911 C123.064,18.547 131.956,16.541 140.631,12.783 C141.200,12.539 141.440,12.593 141.634,12.707 C141.861,12.843 142.012,13.106 141.989,13.539 C141.741,18.348 136.974,21.921 131.397,22.984 C125.920,24.024 120.309,24.785 114.566,25.260 C122.411,25.939 130.857,26.207 139.519,24.811 C140.119,24.710 140.334,24.821 140.490,24.975 C140.676,25.159 140.754,25.443 140.626,25.850 C139.214,30.356 133.820,32.606 128.264,32.281 C123.314,31.981 118.315,31.428 113.266,30.618 C119.484,32.775 126.228,34.714 133.480,35.472 C134.071,35.530 134.243,35.689 134.352,35.875 C134.478,36.095 134.478,36.384 134.253,36.735 C131.752,40.633 126.071,41.389 120.910,39.669 C117.077,38.382 113.255,36.917 109.452,35.267 C114.360,38.449 119.746,41.604 125.823,43.871 C126.372,44.071 126.497,44.263 126.552,44.464 C126.617,44.702 126.546,44.978 126.241,45.256 C122.904,48.338 117.336,47.668 112.877,44.783 C110.217,43.053 107.598,41.213 105.016,39.263 C108.303,42.733 110.971,45.539 115.211,48.590 C115.675,48.918 115.743,49.132 115.741,49.337 C115.741,49.579 115.600,49.820 115.242,50.003 C112.261,51.492 108.386,50.548 105.128,47.534 C103.562,46.084 101.212,43.761 99.781,42.175 C101.800,45.460 103.081,47.157 105.619,50.175 C105.966,50.602 105.974,50.820 105.922,51.013 C105.859,51.242 105.663,51.439 105.277,51.516 C101.301,52.333 98.599,49.765 96.602,47.629 C95.359,46.300 94.228,44.967 93.106,43.621 C94.542,46.018 95.670,47.635 97.779,50.259 C98.129,50.685 98.139,50.906 98.087,51.099 C98.022,51.324 97.826,51.523 97.442,51.600 C93.941,52.319 91.080,49.765 89.083,47.629 C88.237,46.728 87.446,45.822 86.673,44.912 C87.777,46.669 88.845,48.133 90.555,50.259 C90.902,50.685 90.910,50.906 90.858,51.099 C90.793,51.324 90.600,51.523 90.216,51.600 C86.715,52.319 83.851,49.765 81.856,47.629 C81.308,47.045 80.781,46.458 80.272,45.870 C82.909,50.299 85.159,52.682 86.958,54.492 C86.362,54.720 84.872,54.640 84.245,54.397 C84.994,55.511 85.579,56.657 86.420,57.708 C87.809,59.455 89.688,56.121 91.607,56.764 C91.733,56.807 91.842,56.863 91.931,56.981 C92.579,57.111 93.320,57.827 93.129,59.084 C92.581,58.174 91.908,58.097 91.451,58.121 C90.587,58.271 90.145,58.534 89.717,58.817 C90.641,58.574 92.560,59.010 92.686,60.177 C93.234,60.977 93.435,62.029 92.417,63.004 C92.325,60.672 90.571,60.034 88.887,60.124 C89.916,60.424 91.177,61.454 90.808,62.663 C90.931,63.311 90.527,64.459 89.286,64.756 C89.746,64.178 89.858,63.429 89.613,62.842 C89.221,61.908 88.200,61.395 87.464,61.219 C86.018,60.875 84.731,61.298 84.167,61.869 C83.874,62.169 83.700,62.871 84.000,63.450 C83.170,63.035 82.953,61.965 83.094,61.375 C83.044,61.322 82.997,61.245 83.034,61.100 C83.324,59.955 85.394,59.960 84.326,58.736 C84.326,58.736 81.987,56.054 81.987,56.054 C82.034,56.771 81.687,57.748 81.282,58.313 C79.833,56.046 78.079,53.630 76.494,51.882 C78.220,55.977 80.415,60.242 82.770,63.820 C82.924,64.056 83.003,64.341 82.888,64.559 C82.830,64.666 82.736,64.773 82.564,64.816 C80.548,65.291 78.081,63.605 76.797,61.848 C77.413,63.866 77.969,65.975 78.799,67.966 C78.956,68.336 78.927,68.494 78.859,68.623 C78.784,68.774 78.630,68.876 78.371,68.870 C76.055,68.796 74.176,66.753 73.178,64.036 C73.066,68.426 72.552,71.964 70.988,71.964 C69.422,71.964 68.910,68.426 68.795,64.036 C67.800,66.753 65.921,68.796 63.602,68.870 C63.346,68.876 63.193,68.774 63.114,68.623 C63.049,68.494 63.020,68.336 63.174,67.966 C64.010,65.975 64.563,63.866 65.179,61.848 C63.892,63.605 61.428,65.291 59.410,64.816 C59.240,64.773 59.146,64.666 59.088,64.559 C58.974,64.341 59.052,64.056 59.206,63.820 C61.558,60.242 63.754,55.977 65.479,51.882 C63.897,53.630 62.140,56.046 60.694,58.313 C60.292,57.748 59.942,56.771 59.989,56.054 C59.989,56.054 57.647,58.736 57.647,58.736 C56.580,59.960 58.652,59.955 58.940,61.100 C58.976,61.245 58.932,61.322 58.882,61.375 C59.023,61.965 58.806,63.035 57.979,63.450 C58.274,62.871 58.104,62.169 57.809,61.869 C57.245,61.298 55.958,60.875 54.509,61.219 C53.776,61.395 52.755,61.908 52.363,62.842 C52.118,63.429 52.230,64.178 52.687,64.756 C51.447,64.459 51.045,63.311 51.170,62.663 C50.799,61.454 52.060,60.424 53.089,60.124 C51.408,60.034 49.653,60.672 49.559,63.004 C48.541,62.029 48.745,60.977 49.290,60.177 C49.413,59.010 51.332,58.574 52.259,58.817 C51.828,58.534 51.387,58.271 50.525,58.121 C50.066,58.097 49.395,58.174 48.847,59.084 C48.653,57.827 49.398,57.111 50.048,56.981 C50.136,56.863 50.243,56.807 50.369,56.764 C52.285,56.121 54.170,59.455 55.559,57.708 C56.394,56.657 56.982,55.511 57.734,54.397 C57.107,54.640 55.614,54.720 55.018,54.492 C56.817,52.682 59.068,50.299 61.707,45.870 C61.193,46.458 60.668,47.045 60.120,47.629 C58.122,49.765 55.261,52.319 51.760,51.600 C51.376,51.523 51.181,51.324 51.118,51.099 C51.063,50.906 51.074,50.685 51.421,50.259 C53.131,48.133 54.196,46.669 55.303,44.912 C54.530,45.822 53.736,46.728 52.893,47.629 C50.896,49.765 48.032,52.319 44.531,51.600 C44.147,51.523 43.954,51.324 43.892,51.099 C43.837,50.906 43.847,50.685 44.197,50.259 C46.306,47.635 47.434,46.018 48.868,43.621 C48.868,43.621 48.868,43.621 48.868,43.621 ZM71.442,24.980 C72.802,24.992 74.481,25.300 75.264,25.682 C75.011,26.097 74.544,26.246 74.043,26.171 C73.100,26.030 72.338,25.536 71.442,24.980 C71.442,24.980 71.442,24.980 71.442,24.980 Z" id="path-1" class="cls-6" fill-rule="evenodd"/>
  </g>
</svg>
