<svg xmlns="http://www.w3.org/2000/svg" xmlns:xlink="http://www.w3.org/1999/xlink" preserveAspectRatio="xMidYMid" width="155" height="101" viewBox="0 0 155 101">
  <defs>
    <style>

      .cls-3 {
        fill: #000000;
      }
    </style>
  </defs>
  <g id="sm-businesssvg">
    <path d="M154.791,79.842 C154.568,80.606 154.165,81.305 153.580,81.940 C152.996,82.574 152.242,83.136 151.322,83.626 C150.679,83.969 150.040,84.226 149.405,84.398 C148.770,84.571 147.953,84.702 146.954,84.791 C146.311,84.862 145.830,84.933 145.512,85.005 C145.193,85.078 144.911,85.178 144.665,85.309 C144.195,85.560 143.862,85.896 143.666,86.319 C143.471,86.741 143.442,87.210 143.579,87.723 C143.579,87.723 143.231,87.908 143.231,87.908 C143.231,87.908 139.811,81.493 139.811,81.493 C139.811,81.493 140.159,81.308 140.159,81.308 C140.905,82.373 141.916,83.160 143.192,83.671 C143.952,83.964 144.822,84.148 145.803,84.225 C146.784,84.302 147.744,84.256 148.684,84.087 C149.623,83.919 150.454,83.642 151.176,83.258 C151.819,82.915 152.351,82.497 152.770,82.001 C153.191,81.505 153.450,80.989 153.547,80.453 C153.644,79.917 153.565,79.411 153.311,78.934 C153.043,78.431 152.598,78.085 151.979,77.897 C151.698,77.817 151.370,77.779 150.994,77.783 C150.618,77.788 150.154,77.835 149.602,77.925 C149.050,78.015 148.309,78.168 147.377,78.383 C147.377,78.383 146.240,78.644 146.240,78.644 C144.468,79.053 143.221,79.299 142.502,79.385 C141.702,79.497 141.046,79.531 140.534,79.489 C140.023,79.447 139.527,79.311 139.048,79.082 C138.355,78.771 137.839,78.298 137.500,77.662 C137.091,76.895 136.951,76.083 137.082,75.227 C137.212,74.371 137.597,73.553 138.234,72.771 C138.872,71.990 139.692,71.332 140.692,70.800 C142.202,69.996 143.993,69.582 146.065,69.558 C146.787,69.539 147.250,69.476 147.455,69.366 C147.972,69.091 148.140,68.513 147.960,67.632 C147.960,67.632 148.307,67.447 148.307,67.447 C148.307,67.447 150.844,72.203 150.844,72.203 C150.844,72.203 150.496,72.388 150.496,72.388 C149.468,71.465 148.518,70.823 147.646,70.463 C147.021,70.218 146.328,70.080 145.567,70.047 C144.805,70.015 144.013,70.092 143.189,70.280 C142.367,70.467 141.587,70.757 140.852,71.148 C140.302,71.441 139.853,71.778 139.503,72.159 C139.154,72.541 138.909,72.960 138.770,73.417 C138.671,73.741 138.629,74.070 138.644,74.401 C138.660,74.733 138.733,75.022 138.863,75.266 C139.111,75.730 139.503,76.035 140.041,76.182 C140.295,76.260 140.616,76.293 141.006,76.281 C141.395,76.269 141.872,76.206 142.436,76.093 C143.001,75.979 143.777,75.795 144.765,75.541 C145.042,75.488 145.227,75.444 145.320,75.411 C145.320,75.411 145.871,75.271 145.871,75.271 C145.871,75.271 146.752,75.057 146.752,75.057 C148.244,74.696 149.360,74.484 150.100,74.422 C150.841,74.359 151.536,74.426 152.186,74.624 C152.684,74.759 153.135,74.986 153.539,75.306 C153.943,75.626 154.275,76.028 154.533,76.512 C154.787,76.988 154.939,77.521 154.989,78.110 C155.040,78.700 154.974,79.277 154.791,79.842 ZM137.246,87.102 C137.200,87.692 137.041,88.251 136.768,88.779 C136.425,89.497 135.913,90.122 135.234,90.653 C134.554,91.184 133.720,91.618 132.731,91.951 C132.042,92.185 131.369,92.335 130.715,92.403 C130.059,92.470 129.232,92.468 128.233,92.394 C127.587,92.360 127.100,92.351 126.775,92.370 C126.448,92.390 126.153,92.445 125.890,92.534 C125.385,92.705 125.002,92.983 124.741,93.369 C124.479,93.754 124.374,94.212 124.427,94.740 C124.427,94.740 124.054,94.867 124.054,94.867 C124.054,94.867 121.718,87.983 121.718,87.983 C121.718,87.983 122.092,87.857 122.092,87.857 C122.656,89.027 123.526,89.969 124.702,90.679 C125.404,91.091 126.233,91.414 127.189,91.648 C128.145,91.883 129.099,91.993 130.054,91.979 C131.008,91.965 131.872,91.826 132.648,91.564 C133.337,91.331 133.929,91.003 134.425,90.582 C134.920,90.161 135.259,89.694 135.441,89.181 C135.624,88.667 135.629,88.155 135.455,87.643 C135.272,87.103 134.890,86.690 134.310,86.404 C134.045,86.280 133.727,86.189 133.356,86.133 C132.984,86.076 132.518,86.048 131.959,86.048 C131.400,86.046 130.644,86.077 129.690,86.139 C129.690,86.139 128.526,86.212 128.526,86.212 C126.710,86.328 125.440,86.370 124.716,86.338 C123.909,86.318 123.256,86.246 122.758,86.122 C122.260,85.998 121.793,85.783 121.357,85.479 C120.724,85.061 120.291,84.510 120.060,83.828 C119.780,83.004 119.774,82.180 120.042,81.357 C120.310,80.534 120.821,79.788 121.578,79.121 C122.334,78.452 123.249,77.937 124.323,77.573 C125.944,77.024 127.779,76.906 129.826,77.218 C130.541,77.317 131.009,77.329 131.229,77.254 C131.784,77.066 132.044,76.523 132.008,75.624 C132.008,75.624 132.382,75.498 132.382,75.498 C132.382,75.498 134.113,80.601 134.113,80.601 C134.113,80.601 133.740,80.728 133.740,80.728 C132.875,79.651 132.041,78.864 131.239,78.367 C130.663,78.024 130.001,77.775 129.255,77.620 C128.509,77.464 127.715,77.413 126.872,77.464 C126.029,77.516 125.214,77.675 124.424,77.942 C123.834,78.142 123.336,78.402 122.929,78.722 C122.522,79.042 122.213,79.416 122.002,79.844 C121.851,80.149 121.757,80.466 121.718,80.796 C121.680,81.125 121.705,81.422 121.794,81.685 C121.962,82.182 122.300,82.547 122.807,82.779 C123.045,82.897 123.357,82.981 123.743,83.032 C124.129,83.084 124.610,83.099 125.185,83.079 C125.761,83.058 126.557,83.002 127.572,82.912 C127.855,82.903 128.044,82.890 128.142,82.873 C128.142,82.873 128.708,82.824 128.708,82.824 C128.708,82.824 129.612,82.755 129.612,82.755 C131.143,82.641 132.279,82.613 133.020,82.671 C133.760,82.728 134.436,82.908 135.045,83.209 C135.513,83.422 135.921,83.719 136.269,84.101 C136.616,84.483 136.878,84.932 137.054,85.451 C137.228,85.962 137.291,86.513 137.246,87.102 ZM108.243,18.724 C108.243,18.724 108.329,18.316 108.329,18.316 C108.329,18.316 108.894,18.468 108.894,18.468 C110.736,18.962 111.906,18.282 112.405,16.428 C112.405,16.428 114.781,7.594 114.781,7.594 C115.275,5.754 114.602,4.588 112.761,4.093 C112.761,4.093 112.216,3.945 112.216,3.945 C112.216,3.945 112.325,3.545 112.325,3.545 C112.325,3.545 122.689,6.327 122.689,6.327 C122.689,6.327 122.580,6.728 122.580,6.728 C122.580,6.728 121.482,6.433 121.482,6.433 C120.547,6.183 119.794,6.222 119.224,6.550 C118.653,6.879 118.241,7.514 117.989,8.455 C117.989,8.455 114.865,20.071 114.865,20.071 C114.865,20.071 118.801,21.128 118.801,21.128 C119.577,21.336 120.356,21.360 121.137,21.201 C121.918,21.042 122.646,20.723 123.319,20.243 C123.727,19.941 124.097,19.632 124.430,19.318 C124.763,19.004 125.107,18.607 125.462,18.127 C125.816,17.648 126.188,17.087 126.579,16.446 C126.579,16.446 126.981,16.555 126.981,16.555 C126.981,16.555 125.175,23.270 125.175,23.270 C125.175,23.270 108.243,18.724 108.243,18.724 ZM89.909,16.244 C89.909,16.244 89.942,15.828 89.942,15.828 C89.942,15.828 90.522,15.906 90.522,15.906 C92.412,16.158 93.484,15.333 93.739,13.429 C93.739,13.429 94.951,4.363 94.951,4.363 C95.203,2.474 94.384,1.403 92.494,1.151 C92.494,1.151 91.936,1.077 91.936,1.077 C91.936,1.077 91.991,0.665 91.991,0.665 C91.991,0.665 102.628,2.084 102.628,2.084 C102.628,2.084 102.573,2.496 102.573,2.496 C102.573,2.496 101.446,2.346 101.446,2.346 C100.486,2.217 99.744,2.354 99.221,2.752 C98.698,3.152 98.373,3.835 98.244,4.803 C98.244,4.803 96.650,16.723 96.650,16.723 C96.650,16.723 100.690,17.263 100.690,17.263 C101.487,17.369 102.261,17.293 103.016,17.034 C103.770,16.775 104.450,16.365 105.055,15.802 C105.420,15.450 105.748,15.096 106.037,14.741 C106.327,14.387 106.617,13.949 106.906,13.427 C107.195,12.905 107.492,12.302 107.796,11.616 C107.796,11.616 108.209,11.671 108.209,11.671 C108.209,11.671 107.287,18.563 107.287,18.563 C107.287,18.563 89.909,16.244 89.909,16.244 ZM79.971,16.041 C79.971,16.041 79.976,15.603 79.976,15.603 C79.976,15.603 81.170,15.618 81.170,15.618 C81.763,15.625 82.198,15.549 82.474,15.392 C82.750,15.234 82.890,14.986 82.894,14.649 C82.897,14.439 82.845,14.183 82.740,13.882 C82.634,13.580 82.403,13.034 82.045,12.242 C82.023,12.196 81.990,12.121 81.946,12.015 C81.902,11.910 81.855,11.808 81.804,11.710 C81.804,11.710 81.552,11.133 81.552,11.133 C81.552,11.133 74.887,11.050 74.887,11.050 C74.887,11.050 74.365,12.214 74.365,12.214 C74.195,12.610 74.108,13.010 74.103,13.415 C74.098,13.760 74.190,14.102 74.377,14.442 C74.564,14.783 74.811,15.041 75.116,15.217 C75.318,15.339 75.498,15.422 75.660,15.465 C75.821,15.509 76.051,15.539 76.351,15.558 C76.351,15.558 76.345,15.997 76.345,15.997 C76.345,15.997 69.939,15.918 69.939,15.918 C69.939,15.918 69.944,15.479 69.944,15.479 C70.410,15.433 70.781,15.355 71.056,15.245 C71.331,15.136 71.640,14.953 71.981,14.694 C72.784,14.089 73.575,12.940 74.355,11.247 C74.355,11.247 79.493,0.002 79.493,0.002 C79.493,0.002 79.910,0.007 79.910,0.007 C79.910,0.007 86.068,13.832 86.068,13.832 C86.266,14.262 86.488,14.618 86.737,14.898 C86.984,15.179 87.266,15.383 87.579,15.511 C87.893,15.638 88.264,15.705 88.692,15.710 C88.692,15.710 89.108,15.715 89.108,15.715 C89.108,15.715 89.103,16.154 89.103,16.154 C89.103,16.154 79.971,16.041 79.971,16.041 ZM78.255,3.665 C78.255,3.665 75.083,10.636 75.083,10.636 C75.083,10.636 81.332,10.713 81.332,10.713 C81.332,10.713 78.255,3.665 78.255,3.665 ZM59.237,16.600 C59.237,16.600 59.907,16.514 59.907,16.514 C60.859,16.392 61.539,16.069 61.945,15.544 C62.350,15.019 62.492,14.277 62.369,13.317 C62.369,13.317 61.009,2.715 61.009,2.715 C61.009,2.715 60.964,2.722 60.964,2.722 C60.964,2.722 56.042,17.452 56.042,17.452 C56.042,17.452 55.662,17.500 55.662,17.500 C55.662,17.500 47.109,4.540 47.109,4.540 C47.109,4.540 47.064,4.548 47.064,4.548 C47.064,4.548 48.354,14.602 48.354,14.602 C48.444,15.301 48.654,15.878 48.984,16.330 C49.315,16.783 49.758,17.108 50.313,17.306 C50.868,17.503 51.519,17.565 52.267,17.492 C52.267,17.492 52.323,17.928 52.323,17.928 C52.323,17.928 44.996,18.866 44.996,18.866 C44.996,18.866 44.940,18.431 44.940,18.431 C44.940,18.431 45.096,18.411 45.096,18.411 C46.101,18.282 46.853,17.887 47.351,17.226 C47.849,16.565 48.034,15.732 47.905,14.727 C47.905,14.727 46.797,6.090 46.797,6.090 C46.672,5.123 46.350,4.438 45.829,4.035 C45.308,3.632 44.564,3.495 43.596,3.617 C43.596,3.617 43.049,3.687 43.049,3.687 C43.049,3.687 42.996,3.275 42.996,3.275 C42.996,3.275 49.519,2.440 49.519,2.440 C49.519,2.440 56.924,13.618 56.924,13.618 C56.924,13.618 61.224,0.942 61.224,0.942 C61.224,0.942 67.378,0.152 67.378,0.152 C67.378,0.152 67.431,0.565 67.431,0.565 C67.431,0.565 66.861,0.640 66.861,0.640 C65.901,0.762 65.218,1.085 64.812,1.610 C64.406,2.135 64.265,2.877 64.388,3.838 C64.388,3.838 65.552,12.910 65.552,12.910 C65.674,13.862 66.000,14.543 66.529,14.951 C67.058,15.360 67.799,15.503 68.753,15.381 C68.753,15.381 69.322,15.308 69.322,15.308 C69.322,15.308 69.378,15.743 69.378,15.743 C69.378,15.743 59.292,17.035 59.292,17.035 C59.292,17.035 59.237,16.600 59.237,16.600 ZM43.152,16.623 C43.077,17.210 42.891,17.760 42.593,18.274 C42.215,18.975 41.674,19.574 40.969,20.071 C40.263,20.568 39.409,20.960 38.406,21.246 C37.706,21.445 37.027,21.563 36.369,21.598 C35.712,21.633 34.885,21.590 33.891,21.468 C33.247,21.402 32.762,21.370 32.435,21.374 C32.108,21.378 31.811,21.417 31.544,21.493 C31.032,21.640 30.635,21.898 30.355,22.271 C30.075,22.643 29.948,23.095 29.975,23.625 C29.975,23.625 29.596,23.734 29.596,23.734 C29.596,23.734 27.600,16.744 27.600,16.744 C27.600,16.744 27.979,16.636 27.979,16.636 C28.485,17.834 29.308,18.816 30.448,19.582 C31.130,20.028 31.942,20.391 32.885,20.672 C33.828,20.954 34.776,21.110 35.730,21.143 C36.683,21.175 37.554,21.079 38.341,20.855 C39.041,20.655 39.649,20.358 40.164,19.961 C40.680,19.564 41.041,19.114 41.248,18.610 C41.456,18.107 41.485,17.595 41.337,17.076 C41.181,16.528 40.819,16.096 40.254,15.782 C39.996,15.644 39.682,15.539 39.314,15.464 C38.945,15.390 38.482,15.339 37.923,15.311 C37.365,15.283 36.608,15.276 35.652,15.291 C35.652,15.291 34.486,15.308 34.486,15.308 C32.666,15.335 31.396,15.315 30.674,15.248 C29.869,15.189 29.221,15.084 28.730,14.936 C28.238,14.788 27.782,14.551 27.362,14.226 C26.750,13.777 26.344,13.205 26.147,12.513 C25.908,11.677 25.943,10.853 26.250,10.044 C26.558,9.235 27.106,8.516 27.894,7.885 C28.681,7.255 29.620,6.785 30.711,6.474 C32.357,6.005 34.195,5.977 36.225,6.388 C36.934,6.521 37.401,6.556 37.625,6.492 C38.188,6.332 38.474,5.802 38.483,4.903 C38.483,4.903 38.862,4.795 38.862,4.795 C38.862,4.795 40.341,9.977 40.341,9.977 C40.341,9.977 39.962,10.085 39.962,10.085 C39.151,8.967 38.357,8.140 37.580,7.605 C37.021,7.234 36.372,6.953 35.635,6.761 C34.897,6.570 34.106,6.479 33.262,6.490 C32.418,6.500 31.595,6.620 30.794,6.848 C30.195,7.018 29.684,7.254 29.263,7.554 C28.840,7.854 28.514,8.212 28.282,8.629 C28.117,8.926 28.006,9.237 27.951,9.565 C27.897,9.892 27.908,10.190 27.984,10.457 C28.128,10.962 28.447,11.343 28.942,11.600 C29.174,11.728 29.482,11.828 29.864,11.898 C30.248,11.968 30.727,12.007 31.303,12.015 C31.879,12.022 32.676,12.005 33.696,11.965 C33.978,11.970 34.168,11.967 34.266,11.954 C34.266,11.954 34.833,11.933 34.833,11.933 C34.833,11.933 35.740,11.908 35.740,11.908 C37.275,11.869 38.410,11.896 39.148,11.990 C39.884,12.085 40.550,12.297 41.144,12.627 C41.602,12.863 41.995,13.180 42.323,13.577 C42.652,13.975 42.890,14.437 43.041,14.964 C43.190,15.483 43.226,16.036 43.152,16.623 ZM35.558,79.809 C35.558,79.809 34.356,79.467 34.356,79.467 C33.432,79.204 32.678,79.232 32.095,79.554 C31.511,79.875 31.086,80.501 30.821,81.431 C30.821,81.431 28.631,89.102 28.631,89.102 C28.382,89.975 28.369,90.783 28.595,91.526 C28.820,92.268 29.263,92.918 29.924,93.473 C30.586,94.028 31.440,94.453 32.486,94.753 C33.403,95.013 34.296,95.126 35.166,95.088 C36.035,95.053 36.770,94.871 37.371,94.541 C38.481,93.905 39.263,92.795 39.716,91.209 C39.716,91.209 41.260,85.799 41.260,85.799 C41.754,84.067 41.585,82.748 40.751,81.840 C40.514,81.577 40.247,81.364 39.950,81.201 C39.652,81.039 39.206,80.865 38.611,80.679 C38.611,80.679 38.726,80.279 38.726,80.279 C38.726,80.279 46.068,82.372 46.068,82.372 C46.068,82.372 45.953,82.772 45.953,82.772 C45.489,82.679 45.109,82.637 44.818,82.647 C44.526,82.658 44.211,82.724 43.871,82.846 C43.372,83.039 42.939,83.362 42.576,83.816 C42.212,84.270 41.930,84.847 41.731,85.546 C41.731,85.546 40.010,91.573 40.010,91.573 C39.553,93.175 38.766,94.276 37.649,94.878 C37.034,95.203 36.423,95.388 35.817,95.433 C34.538,95.536 33.101,95.361 31.506,94.905 C30.329,94.570 29.293,94.150 28.399,93.645 C27.505,93.143 26.805,92.588 26.298,91.983 C25.346,90.830 25.089,89.493 25.523,87.971 C25.523,87.971 27.648,80.527 27.648,80.527 C28.171,78.695 27.515,77.517 25.682,76.995 C25.682,76.995 25.065,76.819 25.065,76.819 C25.065,76.819 25.179,76.418 25.179,76.418 C25.179,76.418 35.672,79.409 35.672,79.409 C35.672,79.409 35.558,79.809 35.558,79.809 ZM18.943,80.349 C18.460,80.411 17.969,80.418 17.473,80.372 C16.976,80.326 16.296,80.218 15.433,80.048 C15.433,80.048 15.412,80.088 15.412,80.088 C16.290,80.751 16.977,81.365 17.475,81.932 C18.807,83.533 19.145,84.992 18.489,86.308 C18.128,87.033 17.555,87.538 16.771,87.822 C15.988,88.107 15.046,88.158 13.947,87.975 C12.846,87.792 11.648,87.378 10.351,86.733 C10.351,86.733 -0.000,81.581 -0.000,81.581 C-0.000,81.581 0.196,81.188 0.196,81.188 C0.196,81.188 0.609,81.393 0.609,81.393 C1.476,81.825 2.224,81.935 2.853,81.725 C3.482,81.514 4.012,80.976 4.445,80.109 C4.445,80.109 8.526,71.922 8.526,71.922 C8.961,71.049 9.074,70.296 8.865,69.665 C8.656,69.033 8.118,68.501 7.251,68.069 C7.251,68.069 6.838,67.864 6.838,67.864 C6.838,67.864 7.014,67.511 7.014,67.511 C7.014,67.511 17.335,72.648 17.335,72.648 C18.134,73.046 18.868,73.510 19.535,74.039 C20.203,74.568 20.683,75.068 20.975,75.541 C21.346,76.111 21.565,76.687 21.635,77.271 C21.705,77.854 21.614,78.398 21.363,78.902 C20.955,79.721 20.148,80.203 18.943,80.349 ZM6.123,84.188 C6.123,84.188 9.287,85.763 9.287,85.763 C10.624,86.428 11.797,86.641 12.806,86.402 C13.814,86.162 14.592,85.495 15.137,84.401 C15.602,83.467 15.683,82.582 15.380,81.743 C15.160,81.090 14.777,80.522 14.229,80.039 C13.681,79.558 12.799,79.014 11.583,78.408 C11.583,78.408 9.516,77.380 9.516,77.380 C9.516,77.380 6.123,84.188 6.123,84.188 ZM18.444,74.526 C18.145,73.787 17.438,73.139 16.323,72.584 C16.323,72.584 12.785,70.823 12.785,70.823 C12.785,70.823 9.712,76.987 9.712,76.987 C9.712,76.987 12.766,78.507 12.766,78.507 C15.272,79.754 17.070,79.287 18.158,77.105 C18.646,76.125 18.741,75.265 18.444,74.526 ZM47.442,91.183 C47.422,92.483 47.779,93.713 48.513,94.873 C48.958,95.556 49.554,96.214 50.304,96.852 C51.053,97.488 51.858,98.015 52.718,98.427 C53.578,98.841 54.413,99.103 55.224,99.216 C55.945,99.315 56.622,99.287 57.253,99.131 C57.885,98.976 58.397,98.710 58.790,98.332 C59.183,97.955 59.416,97.498 59.490,96.963 C59.568,96.398 59.411,95.858 59.020,95.343 C58.839,95.113 58.595,94.891 58.288,94.674 C57.981,94.458 57.578,94.224 57.078,93.974 C56.578,93.723 55.888,93.413 55.006,93.042 C55.006,93.042 53.933,92.586 53.933,92.586 C52.257,91.879 51.102,91.349 50.469,90.997 C49.756,90.619 49.204,90.263 48.814,89.929 C48.425,89.595 48.103,89.195 47.849,88.729 C47.470,88.070 47.330,87.385 47.428,86.671 C47.547,85.810 47.910,85.070 48.518,84.453 C49.126,83.837 49.917,83.399 50.893,83.139 C51.868,82.880 52.918,82.827 54.041,82.982 C55.736,83.215 57.430,83.929 59.122,85.124 C59.717,85.531 60.131,85.751 60.361,85.783 C60.941,85.863 61.416,85.493 61.787,84.672 C61.787,84.672 62.178,84.726 62.178,84.726 C62.178,84.726 61.441,90.066 61.441,90.066 C61.441,90.066 61.051,90.012 61.051,90.012 C60.760,88.662 60.367,87.585 59.871,86.783 C59.509,86.218 59.029,85.699 58.432,85.228 C57.833,84.755 57.146,84.354 56.370,84.024 C55.593,83.694 54.792,83.471 53.966,83.358 C53.349,83.273 52.787,83.282 52.279,83.387 C51.773,83.491 51.329,83.687 50.948,83.976 C50.677,84.181 50.451,84.422 50.269,84.700 C50.086,84.978 49.976,85.254 49.938,85.529 C49.866,86.050 50.005,86.526 50.354,86.961 C50.515,87.172 50.756,87.387 51.078,87.605 C51.401,87.824 51.824,88.053 52.348,88.291 C52.872,88.530 53.609,88.836 54.557,89.209 C54.814,89.327 54.990,89.400 55.084,89.429 C55.084,89.429 55.613,89.638 55.613,89.638 C55.613,89.638 56.452,89.981 56.452,89.981 C57.872,90.562 58.901,91.044 59.538,91.428 C60.174,91.810 60.697,92.273 61.108,92.814 C61.432,93.214 61.663,93.662 61.803,94.158 C61.944,94.654 61.976,95.174 61.901,95.717 C61.828,96.252 61.638,96.773 61.334,97.280 C61.028,97.787 60.636,98.216 60.156,98.566 C59.528,99.055 58.791,99.385 57.945,99.556 C57.099,99.727 56.159,99.742 55.125,99.600 C54.404,99.500 53.735,99.335 53.120,99.102 C52.504,98.870 51.765,98.497 50.904,97.985 C50.341,97.666 49.910,97.441 49.609,97.313 C49.309,97.185 49.021,97.101 48.746,97.063 C48.218,96.991 47.751,97.068 47.344,97.296 C46.937,97.525 46.639,97.886 46.449,98.382 C46.449,98.382 46.059,98.328 46.059,98.328 C46.059,98.328 47.052,91.129 47.052,91.129 C47.052,91.129 47.442,91.183 47.442,91.183 ZM65.206,99.889 C66.173,99.931 66.902,99.729 67.391,99.280 C67.880,98.832 68.146,98.125 68.188,97.158 C68.265,96.756 68.328,96.401 68.375,96.091 C68.423,95.782 68.459,95.427 68.484,95.026 C68.509,94.626 68.530,94.122 68.550,93.514 C68.631,90.950 68.641,89.017 68.577,87.715 C68.555,87.189 68.489,86.776 68.377,86.479 C68.267,86.181 68.091,85.930 67.852,85.724 C67.419,85.308 66.753,85.079 65.853,85.040 C65.853,85.040 65.414,85.021 65.414,85.021 C65.414,85.021 65.433,84.605 65.433,84.605 C65.433,84.605 75.333,85.036 75.333,85.036 C75.333,85.036 75.314,85.452 75.314,85.452 C75.314,85.452 74.876,85.433 74.876,85.433 C73.908,85.391 73.182,85.592 72.696,86.036 C72.212,86.481 71.947,87.190 71.905,88.164 C71.905,88.164 71.506,97.303 71.506,97.303 C71.465,98.270 71.668,98.997 72.116,99.486 C72.564,99.975 73.268,100.240 74.228,100.281 C74.228,100.281 74.668,100.301 74.668,100.301 C74.668,100.301 74.648,100.739 74.648,100.739 C74.648,100.739 64.748,100.309 64.748,100.309 C64.748,100.309 64.768,99.870 64.768,99.870 C64.768,99.870 65.206,99.889 65.206,99.889 ZM95.069,95.558 C95.069,95.558 94.663,88.797 94.663,88.797 C94.613,87.973 94.429,87.261 94.112,86.660 C93.793,86.060 93.358,85.614 92.807,85.324 C92.511,85.161 92.217,85.051 91.925,84.994 C91.631,84.936 91.225,84.904 90.706,84.898 C90.706,84.898 90.681,84.483 90.681,84.483 C90.681,84.483 98.460,84.016 98.460,84.016 C98.460,84.016 98.485,84.431 98.485,84.431 C98.485,84.431 98.327,84.441 98.327,84.441 C97.195,84.509 96.355,84.920 95.806,85.674 C95.258,86.428 95.024,87.490 95.107,88.861 C95.107,88.861 95.781,100.081 95.781,100.081 C95.781,100.081 95.410,100.102 95.410,100.102 C95.410,100.102 81.018,87.000 81.018,87.000 C81.018,87.000 81.578,96.322 81.578,96.322 C81.632,97.228 81.784,97.946 82.034,98.476 C82.284,99.006 82.661,99.410 83.167,99.687 C83.578,99.904 84.071,100.027 84.645,100.061 C84.963,100.095 85.415,100.105 86.001,100.092 C86.001,100.092 86.026,100.507 86.026,100.507 C86.026,100.507 77.831,100.999 77.831,100.999 C77.831,100.999 77.806,100.584 77.806,100.584 C78.643,100.489 79.318,100.300 79.831,100.017 C80.344,99.735 80.711,99.339 80.933,98.830 C81.154,98.320 81.243,97.698 81.199,96.964 C81.199,96.964 80.666,88.092 80.666,88.092 C80.633,87.546 80.484,87.089 80.217,86.721 C79.951,86.354 79.579,86.081 79.102,85.903 C78.625,85.726 78.056,85.656 77.397,85.696 C77.397,85.696 77.195,85.708 77.195,85.708 C77.195,85.708 77.170,85.293 77.170,85.293 C77.170,85.293 83.476,84.914 83.476,84.914 C83.476,84.914 95.069,95.558 95.069,95.558 ZM116.943,86.568 C116.943,86.568 116.611,86.633 116.611,86.633 C116.106,85.646 115.683,84.916 115.342,84.443 C115.002,83.970 114.595,83.539 114.122,83.150 C113.551,82.687 112.969,82.392 112.378,82.262 C111.399,82.062 110.260,82.088 108.963,82.340 C108.963,82.340 105.924,82.929 105.924,82.929 C105.924,82.929 107.349,90.263 107.349,90.263 C107.349,90.263 108.166,90.104 108.166,90.104 C109.382,89.869 110.246,89.159 110.758,87.974 C111.022,87.365 111.170,86.672 111.202,85.894 C111.229,85.560 111.220,85.077 111.173,84.444 C111.173,84.444 111.560,84.369 111.560,84.369 C111.560,84.369 113.526,94.485 113.526,94.485 C113.526,94.485 113.139,94.560 113.139,94.560 C112.944,94.033 112.740,93.540 112.524,93.082 C112.309,92.623 112.096,92.258 111.887,91.984 C111.677,91.711 111.425,91.448 111.130,91.191 C110.308,90.503 109.285,90.277 108.062,90.514 C108.062,90.514 107.421,90.639 107.421,90.639 C107.421,90.639 108.762,97.542 108.762,97.542 C108.762,97.542 111.305,97.048 111.305,97.048 C112.057,96.903 112.722,96.718 113.302,96.495 C113.882,96.272 114.390,96.002 114.825,95.684 C115.261,95.367 115.653,94.987 116.003,94.544 C116.607,93.793 117.019,92.923 117.239,91.931 C117.366,91.365 117.468,90.611 117.546,89.672 C117.546,89.672 117.955,89.592 117.955,89.592 C117.955,89.592 119.189,95.943 119.189,95.943 C119.189,95.943 102.375,99.205 102.375,99.205 C102.375,99.205 102.274,98.800 102.274,98.800 C102.274,98.800 102.694,98.719 102.694,98.719 C104.565,98.356 105.319,97.232 104.952,95.347 C104.952,95.347 103.207,86.367 103.207,86.367 C103.021,85.410 102.655,84.748 102.110,84.379 C101.564,84.012 100.812,83.921 99.855,84.106 C99.855,84.106 99.435,84.187 99.435,84.187 C99.435,84.187 99.355,83.779 99.355,83.779 C99.355,83.779 115.782,80.593 115.782,80.593 C115.782,80.593 116.943,86.568 116.943,86.568 Z" id="path-1" class="cls-3" fill-rule="evenodd"/>
    <rect id="rect-1" class="cls-3" x="91" y="48" width="26" height="4"/>
    <circle id="circle-1" class="cls-3" cx="75" cy="50" r="4"/>
    <rect id="rect-2" class="cls-3" x="35" y="48" width="26" height="4"/>
  </g>
</svg>
